/* XPM */
static char *wall[] = {
/* columns rows colors chars-per-pixel */
"20 20 3 1 ",
"  c black",
". c #4D220F",
"X c #B95225",
/* pixels */
"................... ",
".XXXXXXXXXXXXXXXXXX ",
".XXXXXXXXXXXXXXXXXX ",
".XX..XXXXXXXXXX..XX ",
".XX. XXXXXXXXXX. XX ",
".XXXXXXXXXXXXXXXXXX ",
".XXXXXXXXXXXXXXXXXX ",
".XXXXXXXXXXXXXXXXXX ",
".XXXXXXXXXXXXXXXXXX ",
".XXXXXXXXXXXXXXXXXX ",
".XXXXXXXXXXXXXXXXXX ",
".XXXXXXXXXXXXXXXXXX ",
".XXXXXXXXXXXXXXXXXX ",
".XXXXXXXXXXXXXXXXXX ",
".XXXXXXXXXXXXXXXXXX ",
".XX..XXXXXXXXXX..XX ",
".XX. XXXXXXXXXX. XX ",
".XXXXXXXXXXXXXXXXXX ",
".XXXXXXXXXXXXXXXXXX ",
"                    "
};
