/* XPM */
static char *explode9[] = {
/* columns rows colors chars-per-pixel */
"20 20 63 1 ",
"  c #150000",
". c #180200",
"X c #1D0000",
"o c #2E0000",
"O c #2E0100",
"+ c #260900",
"@ c #290800",
"# c #300000",
"$ c #320000",
"% c #320100",
"& c #340000",
"* c #3C0E00",
"= c #381200",
"- c #440100",
"; c #440200",
": c #450300",
"> c #420600",
", c #460600",
"< c #4B0000",
"1 c #4C0300",
"2 c #4B0A00",
"3 c #510400",
"4 c #5A0500",
"5 c #550A00",
"6 c #500C00",
"7 c #530E00",
"8 c #4B1100",
"9 c #4D1400",
"0 c #5C1400",
"q c #600100",
"w c #660000",
"e c #600400",
"r c #6A0200",
"t c #610A00",
"y c #620A00",
"u c #600C00",
"i c #630D00",
"p c #760D00",
"a c #7C0900",
"s c #641100",
"d c #611400",
"f c #641700",
"g c #681400",
"h c #681500",
"j c #701000",
"k c #731200",
"l c #711400",
"z c #7C1300",
"x c #7A1600",
"c c #761C00",
"v c #722F00",
"b c #811400",
"n c #851500",
"m c #841600",
"M c #811800",
"N c #851E00",
"B c #8C1A00",
"V c #9D1100",
"C c #931B00",
"Z c #9D2A00",
"A c #DB4A00",
"S c #FF6400",
"D c None",
/* pixels */
"DDDDDDDDDDDDDDDDDDDD",
"DDDDDDDDDDDDDDDDDDDD",
"DDDDDDDDDDDDDDDDDDDD",
"DDDDDDDDDDDD3DDDDDDD",
"DDDDDDDDDDD:mDD$DDDD",
"DDDDDDDDDDDMt9DDDDDD",
"DDDDDDDo*irNh2hDDDDD",
"DDDDjDfxvSaD=$DDDDDD",
"DDDDj:dBcAuDDDDDDDDD",
"DDDDD:4sCzoDDD$DDDDD",
"DDDDDDD2l+t7m1DDDDDD",
"DDDD,DDD& p0ZVDDDDDD",
"DDDDDDDD$.85etDDDDDD",
"DDDDDDDD><@brXDDDDDD",
"DDDDDDDDDqDD&DDDDDDD",
"DDDDDDDDDDDDDDDDDDDD",
"DDDDDDDDDDDDDDDDDDDD",
"DDDDDDDDDDDDDDDDDDDD",
"DDDDDDDDDDDDDDDDDDDD",
"DDDDDDDDDDDDDDDDDDDD"
};
