/* XPM */
static char *explode4[] = {
/* columns rows colors chars-per-pixel */
"20 20 190 2 ",
"   c black",
".  c #120000",
"X  c #140000",
"o  c #1A0000",
"O  c #220000",
"+  c #240000",
"@  c #310000",
"#  c #340000",
"$  c #390100",
"%  c #3D0000",
"&  c #3E0000",
"*  c #3A0500",
"=  c #380F00",
"-  c #381F00",
";  c #420100",
":  c #470000",
">  c #4E0000",
",  c #4F0000",
"<  c #4E0100",
"1  c #440F00",
"2  c #490800",
"3  c #4F0F00",
"4  c #540000",
"5  c #580000",
"6  c #5B0000",
"7  c #570B00",
"8  c #600000",
"9  c #620000",
"0  c #630000",
"q  c #650000",
"w  c #670300",
"e  c #620500",
"r  c #660700",
"t  c #670C00",
"y  c #6D0900",
"u  c #720200",
"i  c #790000",
"p  c #760800",
"a  c #7E0A00",
"s  c #6B1200",
"d  c #6B1700",
"f  c #671C00",
"g  c #6F1F00",
"h  c #781600",
"j  c #7F1900",
"k  c #682900",
"l  c #6F2D00",
"z  c #7B2800",
"x  c #6E3700",
"c  c #8C0000",
"v  c #890400",
"b  c #8A0C00",
"n  c #920300",
"m  c #8A1A00",
"M  c #8D1B00",
"N  c #9C1500",
"B  c #991800",
"V  c #AB0B00",
"C  c #AF1600",
"Z  c #A81B00",
"A  c #8A2000",
"S  c #8F2100",
"D  c #8D2200",
"F  c #842A00",
"G  c #862A00",
"H  c #902500",
"J  c #9E2E00",
"K  c #A32000",
"L  c #A52000",
"P  c #A92600",
"I  c #A92800",
"U  c #AE2B00",
"Y  c #B52300",
"T  c #B32800",
"R  c #B72A00",
"E  c #B92900",
"W  c #B13300",
"Q  c #B53E00",
"!  c #C51A00",
"~  c #C63400",
"^  c #C33E00",
"/  c #C63F00",
"(  c #D93800",
")  c #DD3B00",
"_  c #E03F00",
"`  c #944400",
"'  c #AE4900",
"]  c #B85900",
"[  c #B76500",
"{  c #BB6000",
"}  c #B57C00",
"|  c #D74300",
" . c #D34D00",
".. c #C85A00",
"X. c #E35300",
"o. c #C66600",
"O. c #C06E00",
"+. c #DE6500",
"@. c #D46B00",
"#. c #DB6800",
"$. c #C37600",
"%. c #CB7700",
"&. c #CC7600",
"*. c #CC7900",
"=. c #D37100",
"-. c #D17300",
";. c #DC7200",
":. c #DE7400",
">. c #E46400",
",. c #EA6300",
"<. c #EF6000",
"1. c #E76800",
"2. c #E96900",
"3. c #F46900",
"4. c #E67700",
"5. c #EA7500",
"6. c #E07900",
"7. c #EF7F00",
"8. c #F37400",
"9. c #F27700",
"0. c #F47600",
"q. c #F67700",
"w. c #FE7600",
"e. c #F27900",
"r. c #FA7A00",
"t. c #EF8000",
"y. c #EE8100",
"u. c #EF8F00",
"i. c #FB8500",
"p. c #F28C00",
"a. c #F48E00",
"s. c #FB8A00",
"d. c #FF8D00",
"f. c #FC8E00",
"g. c #E49600",
"h. c #EA9700",
"j. c #F19500",
"k. c #F19600",
"l. c #F59500",
"z. c #F69700",
"x. c #F89100",
"c. c #FC9300",
"v. c #F49900",
"b. c #FF9900",
"n. c #FD9B00",
"m. c #FF9B00",
"M. c #F89E00",
"N. c #FA9E00",
"B. c #FF9C00",
"V. c #FC9E00",
"C. c #EAA000",
"Z. c #F9A100",
"A. c #FEA100",
"S. c #FFA300",
"D. c #FFAF00",
"F. c #F2B500",
"G. c #FBB000",
"H. c #FCB300",
"J. c #FEB800",
"K. c #FFBA00",
"L. c #FFBC00",
"P. c #FFBE00",
"I. c #FFC200",
"U. c #FFC600",
"Y. c #FFC700",
"T. c #FFC800",
"R. c #FFCA00",
"E. c #FFCB00",
"W. c #FFCE00",
"Q. c #FECF00",
"!. c #FED300",
"~. c #FFD600",
"^. c #FFDB00",
"/. c #FBDF00",
"(. c #FFDC00",
"). c #FFDE00",
"_. c #FCE000",
"`. c #FEE300",
"'. c #FFE300",
"]. c #FFE400",
"[. c #FFE500",
"{. c #FFE700",
"}. c #FFEA00",
"|. c #FFED00",
" X c #FFEF00",
".X c #FFF200",
"XX c #FFF800",
"oX c #FFFC00",
"OX c yellow",
"+X c None",
/* pixels */
"+X+X+X+X+X+X+X+X+X+X+X+X+X+X+X+X+X+X+X+X",
"+X+X+X+X+X+X+X+X+X+X# +X+X$ < 6 +X+X+X+X",
"+X+X+X+X+X+X+X+X+X+Xs b t 1 @ p 6 +X+X+X",
"+Xr +X+XH S +X+X+X+XA ..U # 3 h 4 u +X+X",
"* y +X+X' ( ~ %.A [ D.m.S.G i E 8 : & +X",
"+X+ .   j x.K.Q.L o.OXl.i.T.;.N n v +X+X",
"+XO X m v.~.Q.v.%.#.P.}.a.k.T.q ; w +X+X",
"+X= W B.T.6.k.XXOXT.f..X/.V ) J +X+X+X+X",
"+X- y.T.l.2.N.|.].D.(.OX:.K >.X.+X+X+X+X",
"+X+X{ U.h.0.m.`.XX}.OXF.! h.K.R +X+X+X+X",
"+X+XF [ e.c.].].!.`.|.C.| r.f.P +X+X+X+X",
"+X+Xg ] 3.R &.Z.m.l.N.p.s.8.^ M +X+X+X+X",
"+X+X-.P.<.Z @.v.,.5._.H.A.I.P +X+X+X+X+X",
"+X+Xl Q e $.].-.^ 7.OXB.0.1.B +X+X+X+X+X",
"+X+X+X+X+Xk } g.e.T.^.w._ c +X+X+X+X+X+X",
"+X+X+X+X+Xo & ` +. .4.9.C < +X+X+X+X+X+X",
"+X+X+X+X+X+Xd 8 6 < f z 8 +X+X+X+X+X+X+X",
"+X+X+X+X+X+Xx Y a +X+X+X+X+X+X+X+X+X+X+X",
"+X+X+X+X+X+X+X2 7 +X+X+X+X+X+X+X+X+X+X+X",
"+X+X+X+X+X+X+X+X+X+X+X+X+X+X+X+X+X+X+X+X"
};
