/* XPM */
static char *explode2[] = {
/* columns rows colors chars-per-pixel */
"20 20 155 2 ",
"   c #140000",
".  c #220000",
"X  c #240000",
"o  c #290000",
"O  c #360000",
"+  c #370000",
"@  c #320600",
"#  c #3A0000",
"$  c #3C0000",
"%  c #3F0000",
"&  c #380B00",
"*  c #3D0A00",
"=  c #3B1100",
"-  c #2F2D00",
";  c #430000",
":  c #480000",
">  c #4A0000",
",  c #4F0000",
"<  c #4A0800",
"1  c #490C00",
"2  c #4D0F00",
"3  c #560000",
"4  c #540300",
"5  c #5F0000",
"6  c #560900",
"7  c #5E0A00",
"8  c #551600",
"9  c #630000",
"0  c #670000",
"q  c #650700",
"w  c #6A0000",
"e  c #6C0000",
"r  c #680A00",
"t  c #730000",
"y  c #730600",
"u  c #7D0400",
"i  c #730800",
"p  c #770B00",
"a  c #631000",
"s  c #6E1500",
"d  c #781F00",
"f  c #522500",
"g  c #7F2C00",
"h  c #793100",
"j  c #5C5300",
"k  c #800000",
"l  c #840500",
"z  c #8F0600",
"x  c #910700",
"c  c #9B0F00",
"v  c #8F1700",
"b  c #8C1C00",
"n  c #941300",
"m  c #931A00",
"M  c #9C1800",
"N  c #9E1E00",
"B  c #A00A00",
"V  c #BE1600",
"C  c #9C2400",
"Z  c #9D2D00",
"A  c #8D3A00",
"S  c #A52400",
"D  c #A52F00",
"F  c #BA2200",
"G  c #BD2500",
"H  c #B82900",
"J  c #B43A00",
"K  c #C41200",
"L  c #C11400",
"P  c #CC1A00",
"I  c #805000",
"U  c #9F5300",
"Y  c #B04100",
"T  c #B94600",
"R  c #AB5200",
"E  c #BB5B00",
"W  c #BD7100",
"Q  c #CA4C00",
"!  c #DD4000",
"~  c #DD4F00",
"^  c #CB5200",
"/  c #C85900",
"(  c #CB5E00",
")  c #CA6000",
"_  c #C67C00",
"`  c #DA7F00",
"'  c #F26700",
"]  c #ED7F00",
"[  c #F07D00",
"{  c #FF7B00",
"}  c #FF7C00",
"|  c #CE8900",
" . c #DD8B00",
".. c #E58800",
"X. c #F78400",
"o. c #FF8700",
"O. c #E79600",
"+. c #F09500",
"@. c #F99300",
"#. c #FC9300",
"$. c #FF9400",
"%. c #FF9700",
"&. c #F79E00",
"*. c #F99B00",
"=. c #FF9900",
"-. c #E0A700",
";. c #F9A200",
":. c #FCA100",
">. c #F9AB00",
",. c #FFB700",
"<. c #FEBD00",
"1. c #FFBD00",
"2. c #FFC100",
"3. c #FDC500",
"4. c #FFC800",
"5. c #FFCB00",
"6. c #FFCC01",
"7. c #FFD200",
"8. c #FED300",
"9. c #FED201",
"0. c #FCD500",
"q. c #FFD400",
"w. c #FFD800",
"e. c #FFDB00",
"r. c #FFDC00",
"t. c #FFDF00",
"y. c #FFE100",
"u. c #FFE400",
"i. c #FFE500",
"p. c #FFE600",
"a. c #FFE700",
"s. c #FFE601",
"d. c #FFE900",
"f. c #FFEB00",
"g. c #FFED00",
"h. c #FFF000",
"j. c #FFF200",
"k. c #FFF300",
"l. c #FFF400",
"z. c #FFF600",
"x. c #FFF800",
"c. c #FFF900",
"v. c #FFFA00",
"b. c #FFFB00",
"n. c #FFFC00",
"m. c #FFFD00",
"M. c #FFFE00",
"N. c yellow",
"B. c #FFFF04",
"V. c #FFFF05",
"C. c #FFFF16",
"Z. c #FFFF2F",
"A. c #FFFF3B",
"S. c #FFFF47",
"D. c None",
/* pixels */
"D.D.D.D.D.D.D.D.D.D.D.D.D.D.D.D.D.D.D.D.",
"D.D.D.D.D.D.D.D.D.D.D.D.D.D.q D.D.D.D.D.",
"D.D.D.D.D.D.D.D.D.D.7 m 8 < r z ; D.D.D.",
"D.D.D.D.D.D.D.D.D.D.J H i   * v e p D.D.",
"D.D.d S D.D.C c D.g Q ) T X @ D x L 6 D.",
"D.D.Z b . W ,.1.q.#.3.l.l.( 9 G c 0 ; D.",
"D.D.2 + $  .M.M.M.1.M.x.k.M.' k t 3 D.D.",
"D.D.= > Y x.M.M.M.a.k.M.f.M.M.N + , D.D.",
"D.D.D./ r.M.w.q.B.M.M.M.M.] @.{ 4 D.D.D.",
"D.D.- -.M.x.2.6.B.M.C.Z.a.*.>.X.y D.D.D.",
"D.D.D.| M.M.k.x.M.M.A.S.f.M.M.:.l D.D.D.",
"D.D.D.A ..0.M.M.M.M.M.k.9.y.r.#.u D.D.D.",
"D.D.D.U &.;.l.M.M.x.M.l.5.a.$.M D.D.D.D.",
"D.D.D.I y.g.f.M.r.9.M.M.a.g.{ w D.D.D.D.",
"D.D.D.D.1 R +.a.a.x.M.y.2.o.L D.D.D.D.D.",
"D.D.D.& : X g ` ] 5.M.x.=.P # D.D.D.D.D.",
"D.D.D.D.D.D.f ^ K F _ O.~ 5 D.D.D.D.D.D.",
"D.D.D.D.D.D.j E ! n D.D.D.D.D.D.D.D.D.D.",
"D.D.D.D.D.D.D.D.s a D.D.D.D.D.D.D.D.D.D.",
"D.D.D.D.D.D.D.D.D.D.D.D.D.D.D.D.D.D.D.D."
};
