/* XPM */
static char *explode8[] = {
/* columns rows colors chars-per-pixel */
"20 20 95 2 ",
"   c black",
".  c #1F0000",
"X  c #180500",
"o  c #210000",
"O  c #220000",
"+  c #300000",
"@  c #320000",
"#  c #330100",
"$  c #370000",
"%  c #370300",
"&  c #320500",
"*  c #390000",
"=  c #3A0000",
"-  c #3B0000",
";  c #390400",
":  c #3A0500",
">  c #351300",
",  c #391000",
"<  c #420000",
"1  c #430100",
"2  c #430200",
"3  c #460200",
"4  c #470200",
"5  c #450500",
"6  c #440600",
"7  c #480100",
"8  c #4B0100",
"9  c #4C0200",
"0  c #4C0300",
"q  c #4C0400",
"w  c #450800",
"e  c #500600",
"r  c #570500",
"t  c #520B00",
"y  c #520F00",
"u  c #411000",
"i  c #431300",
"p  c #451200",
"a  c #4A1000",
"s  c #4C1400",
"d  c #551200",
"f  c #5B1300",
"g  c #660000",
"h  c #670000",
"j  c #680500",
"k  c #640E00",
"l  c #730700",
"z  c #710900",
"x  c #651100",
"c  c #6B1300",
"v  c #681400",
"b  c #691500",
"n  c #601900",
"m  c #731500",
"M  c #711600",
"N  c #751600",
"B  c #7F1500",
"V  c #711900",
"C  c #771F00",
"Z  c #781E00",
"A  c #7D1D00",
"S  c #752200",
"D  c #7B3700",
"F  c #8A0C00",
"G  c #930D00",
"H  c #851800",
"J  c #901E00",
"K  c #981F00",
"L  c #9D1D00",
"P  c #892100",
"I  c #882200",
"U  c #8C2400",
"Y  c #8A2900",
"T  c #8D2F00",
"R  c #922600",
"E  c #9C2500",
"W  c #9D2600",
"Q  c #903500",
"!  c #9A3400",
"~  c #993700",
"^  c #AE3700",
"/  c #B63200",
"(  c #B73500",
")  c #B73600",
"_  c #BF3700",
"`  c #C22D00",
"'  c #C73C00",
"]  c #984C00",
"[  c #A54700",
"{  c #B54400",
"}  c #DA4800",
"|  c #D84E00",
" . c #C76800",
".. c #FF7500",
"X. c None",
/* pixels */
"X.X.X.X.X.X.X.X.X.X.X.X.X.X.X.X.X.X.X.X.",
"X.X.X.X.X.X.X.X.X.X.X.X.X.X.X.X.X.X.X.X.",
"X.X.X.X.X.X.X.X.X.X.X.X.< X.X.X.X.X.X.X.",
"X.X.X.X.X.X.X.X.X.X.X.B J X.. < X.X.X.X.",
"X.X.X.X.X.7 X.X.X.X.u E v a < # O X.X.X.",
"X.X.X.X.X.X.- 0 4 - Y | k U Z X.X.X.X.X.",
"X.X.X.X.m & A H ] } F D T r X.X.X.X.X.X.",
"X.X.X.f ' 0 ~ {  ...h s > + - X.X.X.X.X.",
"X.X.X.X.d z E R ^ ( S :   X 5 X.X.X.X.X.",
"X.X.X.X.X.5 y ~ ( m S u 0 0 4 X.X.X.X.X.",
"X.X.X.X.x X.X.v v - ( [ ` l X.X.X.X.X.X.",
"X.X.X.: w X.X.X.+ , I N _ E X.X.X.X.X.X.",
"X.X.X.X.X.X.X.X.t 5 Q L j e X.X.X.X.X.X.",
"X.X.X.X.X.X.X.u V G n P h X.X.X.X.X.X.X.",
"X.X.X.X.X.X.X.X.4 X.X.O # X.X.X.X.X.X.X.",
"X.X.X.X.X.X.X.X.X.X.X.X.X.X.X.X.X.X.X.X.",
"X.X.X.X.X.X.X.X.X.X.X.X.X.X.X.X.X.X.X.X.",
"X.X.X.X.X.X.X.X.X.X.X.X.X.X.X.X.X.X.X.X.",
"X.X.X.X.X.X.X.X.X.X.X.X.X.X.X.X.X.X.X.X.",
"X.X.X.X.X.X.X.X.X.X.X.X.X.X.X.X.X.X.X.X."
};
