/* XPM */
static char *frame_0[] = {
/* columns rows colors chars-per-pixel */
"40 40 2 1 ",
"  c #4BB0F7",
". c #6ABDF7",
/* pixels */
"....                              ......",
"....                              ......",
"                              ......    ",
"                              ......    ",
"                            ....        ",
"                            ....        ",
"                          ....          ",
"                          ....          ",
"                        ....            ",
"                        ....            ",
"                    ......              ",
"                    ......              ",
"                  ....                  ",
"                  ....                  ",
"              ......                    ",
"              ......                    ",
"            ....                        ",
"            ....                        ",
"      ........                          ",
"      ........                          ",
"  ......                                ",
"  ......                                ",
"....                    ................",
"....                    ................",
"            ..............              ",
"            ..............              ",
"..............                    ......",
"..............                    ......",
"                              ......    ",
"                              ......    ",
"                          ....          ",
"                          ....          ",
"                    ........            ",
"                    ........            ",
"            ..........                  ",
"            ..........                  ",
"      ........                          ",
"      ........                          ",
"........                                ",
"........                                "
};
