/* XPM */
static char *frame_0[] = {
/* columns rows colors chars-per-pixel */
"40 40 3 1 ",
"  c #4D220F",
". c #B95225",
"X c #D98D6C",
/* pixels */
"..XXXXXXXXXXXXXXXXXXXXXXXXXXXXXXXXXXXX  ",
"..XXXXXXXXXXXXXXXXXXXXXXXXXXXXXXXXXXXX  ",
"XX..XXXXXXXXXXXXXXXXXXXXXXXXXXXXXXXX    ",
"XX..XXXXXXXXXXXXXXXXXXXXXXXXXXXXXXXX    ",
"XXXX..XXXXXXXXXXXXXXXXXXXXXXXXXXXX      ",
"XXXX..XXXXXXXXXXXXXXXXXXXXXXXXXXXX      ",
"XXXXXX..XXXXXXXXXXXXXXXXXXXXXXXX        ",
"XXXXXX..XXXXXXXXXXXXXXXXXXXXXXXX        ",
"XXXXXXXX..XXXXXXXXXXXXXXXXXXXX          ",
"XXXXXXXX..XXXXXXXXXXXXXXXXXXXX          ",
"XXXXXXXXXX....................          ",
"XXXXXXXXXX....................          ",
"XXXXXXXXXX....................          ",
"XXXXXXXXXX....................          ",
"XXXXXXXXXX....................          ",
"XXXXXXXXXX....................          ",
"XXXXXXXXXX....................          ",
"XXXXXXXXXX....................          ",
"XXXXXXXXXX....................          ",
"XXXXXXXXXX....................          ",
"XXXXXXXXXX....................          ",
"XXXXXXXXXX....................          ",
"XXXXXXXXXX....................          ",
"XXXXXXXXXX....................          ",
"XXXXXXXXXX....................          ",
"XXXXXXXXXX....................          ",
"XXXXXXXXXX....................          ",
"XXXXXXXXXX....................          ",
"XXXXXXXXXX....................          ",
"XXXXXXXXXX....................          ",
"XXXXXXXX                      ..        ",
"XXXXXXXX                      ..        ",
"XXXXXX                          ..      ",
"XXXXXX                          ..      ",
"XXXX                              ..    ",
"XXXX                              ..    ",
"XX                                  ..  ",
"XX                                  ..  ",
"                                      ..",
"                                      .."
};
