/* XPM */
static char *grab0[] = {
/* columns rows colors chars-per-pixel */
"20 20 8 1 ",
"  c None",
". c #542F29",
"X c #FE0F17",
"o c #FFFF43",
"O c #0770BC",
"+ c #FEB38D",
"@ c white",
"# c black",
/* pixels */
"                    ",
"                    ",
"                    ",
"   XXXXX            ",
"  XXXXXXXXX         ",
"  ...++#+           ",
" .+.+++#+++         ",
" .+..+++#+++        ",
" ..++++####         ",
"   +++++++ @        ",
"   OOXXXXX@@@       ",
"  OOXXXXXX@@@       ",
" OOOOOoO            ",
" OOOOOOO   .        ",
" OOOOOOOOO..        ",
"  OOOOOOOO..        ",
"   OOOOOOO..        ",
"                    ",
"                    ",
"                    "
};
