/* XPM */
static char *frame_1[] = {
/* columns rows colors chars-per-pixel */
"40 40 8 1 ",
"  c black",
". c #4E4B4D",
"X c #BF080E",
"o c #2DAA2E",
"O c #DBDBDA",
"+ c #EBEEF6",
"@ c white",
"# c None",
/* pixels */
"########################################",
"########################################",
"####################    ################",
"####################    ################",
"##################  @@oo  ##############",
"##################  @@oo  ##############",
"################  @@oooooo  ############",
"################  @@oooooo  ############",
"################  oooooooo  ############",
"################  oooooooo  ############",
"########XXXXXXXXXX  oooo  ##############",
"########XXXXXXXXXX  oooo  ##############",
"####XXXXXXXX@XXXX@XX    ################",
"####XXXXXXXX@@XX@@XX    ################",
"######XXXXXX@@@@@@XXXXOO################",
"######XXXXXX@X@@X@XXXXOO################",
"########XXXX@XXXX@XXXXOO################",
"########XXXX@XXXX@XXXXOO################",
"##########XXXXXXXXXX@@OO################",
"##########XXXXXXXXXX@@OO################",
"############XXXXXXXX@@OO################",
"############XXXXXXXX@@OO################",
"##############XXXXXX@@OO################",
"##############XXXXXX@@OO################",
"################XXXX@@OO################",
"################XXXX@@OO################",
"##################XX@@OO################",
"##################XX@@OO################",
"####################@@OO################",
"####################@@OO################",
"##################        ##############",
"##################        ##############",
"################@@++++++++..############",
"################@@++++++++..############",
"################@@OOOOOOOO  ############",
"################@@OOOOOOOO  ############",
"################            ############",
"################            ############",
"########################################",
"########################################"
};
