/* XPM */
static char *frame_2[] = {
/* columns rows colors chars-per-pixel */
"40 40 4 1 ",
"  c #000307",
". c #B95225",
"X c #25A42A",
"o c #B6DE4A",
/* pixels */
"                    ....................",
"                    ....................",
"  ooXXoooooooooooo                  ....",
"  ooXXoooooooooooo                  ....",
"  ooXXXXooXXooXXoo  oooooooooooooooo  ..",
"  ooXXXXooXXooXXoo  oooooooooooooooo  ..",
"  ooXXooXXooXXooXX  ooXXooXXooXXooXXoo  ",
"  ooXXooXXooXXooXX  ooXXooXXooXXooXXoo  ",
"  ooXXXXXXXXXXXXXX  XXooXXooXXooXXooXX  ",
"  ooXXXXXXXXXXXXXX  XXooXXooXXooXXooXX  ",
"  ooXXXXXXXXXXXXXX  XXXXXXXXXXXXXXXXXX  ",
"  ooXXXXXXXXXXXXXX  XXXXXXXXXXXXXXXXXX  ",
"  ooXXXXXXXXXXXXXX  XXXXXXXXXXXXXXXXXX  ",
"  ooXXXXXXXXXXXXXX  XXXXXXXXXXXXXXXXXX  ",
"  ooXXXXXXXXXXXXXX  XXXXXXXXXXXXXXXXXX  ",
"  ooXXXXXXXXXXXXXX  XXXXXXXXXXXXXXXXXX  ",
"  ooXXXXXXXXXXXXXX  XXXXXXXXXXXXXXXXXX  ",
"  ooXXXXXXXXXXXXXX  XXXXXXXXXXXXXXXXXX  ",
"  ooXXXXXXXXXXXXXX  XXXXXXXXXXXXXXXXXX  ",
"  ooXXXXXXXXXXXXXX  XXXXXXXXXXXXXXXXXX  ",
"  ooXXXXXXXXXXXXXX  XXXXXXXXXXXXXXXXXX  ",
"  ooXXXXXXXXXXXXXX  XXXXXXXXXXXXXXXXXX  ",
"  ooXXXXXXXXXXXXXX  oooooooooooooooooo  ",
"  ooXXXXXXXXXXXXXX  oooooooooooooooooo  ",
"  ooXXoooooooooooo  XXXXXXXXXXXXXXXXXX  ",
"  ooXXoooooooooooo  XXXXXXXXXXXXXXXXXX  ",
"  ooXXXXXXXXXXXXXX  oooooooooooooooooo  ",
"  ooXXXXXXXXXXXXXX  oooooooooooooooooo  ",
"  oooooooooooooooo  oooooooooooooooooo  ",
"  oooooooooooooooo  oooooooooooooooooo  ",
"  oooooooooooooooo  oooooooooooooooooo  ",
"  oooooooooooooooo  oooooooooooooooooo  ",
"  oooooooooooooooo  XXXXXXXXXXXXXXXXXX  ",
"  oooooooooooooooo  XXXXXXXXXXXXXXXXXX  ",
"  ooXXXXXXXXXXXXXX  oooooooooooooooo  ..",
"  ooXXXXXXXXXXXXXX  oooooooooooooooo  ..",
"  ooXXoooooooooooo                  ....",
"  ooXXoooooooooooo                  ....",
"                    ....................",
"                    ...................."
};
