/* XPM */
static char *frame_0[] = {
/* columns rows colors chars-per-pixel */
"40 40 7 1 ",
"  c black",
". c #4E4B4D",
"X c #2DAA2E",
"o c #DBDBDA",
"O c #EBEEF6",
"+ c white",
"@ c None",
/* pixels */
"@@@@@@@@@@@@@@@@@@@@@@@@@@@@@@@@@@@@@@@@",
"@@@@@@@@@@@@@@@@@@@@@@@@@@@@@@@@@@@@@@@@",
"@@@@@@@@@@@@@@@@@@@@    @@@@@@@@@@@@@@@@",
"@@@@@@@@@@@@@@@@@@@@    @@@@@@@@@@@@@@@@",
"@@@@@@@@@@@@@@@@@@  ++XX  @@@@@@@@@@@@@@",
"@@@@@@@@@@@@@@@@@@  ++XX  @@@@@@@@@@@@@@",
"@@@@@@@@@@@@@@@@  ++XXXXXX  @@@@@@@@@@@@",
"@@@@@@@@@@@@@@@@  ++XXXXXX  @@@@@@@@@@@@",
"@@@@@@@@@@@@@@@@  XXXXXXXX  @@@@@@@@@@@@",
"@@@@@@@@@@@@@@@@  XXXXXXXX  @@@@@@@@@@@@",
"@@@@@@@@..........  XXXX  @@@@@@@@@@@@@@",
"@@@@@@@@..........  XXXX  @@@@@@@@@@@@@@",
"@@@@........++++++..    @@@@@@@@@@@@@@@@",
"@@@@........++++++..    @@@@@@@@@@@@@@@@",
"@@@@@@....++..++..++..oo@@@@@@@@@@@@@@@@",
"@@@@@@....++..++..++..oo@@@@@@@@@@@@@@@@",
"@@@@@@@@..++++++++++..oo@@@@@@@@@@@@@@@@",
"@@@@@@@@..++++++++++..oo@@@@@@@@@@@@@@@@",
"@@@@@@@@@@..++..++..++oo@@@@@@@@@@@@@@@@",
"@@@@@@@@@@..++..++..++oo@@@@@@@@@@@@@@@@",
"@@@@@@@@@@@@........++oo@@@@@@@@@@@@@@@@",
"@@@@@@@@@@@@........++oo@@@@@@@@@@@@@@@@",
"@@@@@@@@@@@@@@......++oo@@@@@@@@@@@@@@@@",
"@@@@@@@@@@@@@@......++oo@@@@@@@@@@@@@@@@",
"@@@@@@@@@@@@@@@@....++oo@@@@@@@@@@@@@@@@",
"@@@@@@@@@@@@@@@@....++oo@@@@@@@@@@@@@@@@",
"@@@@@@@@@@@@@@@@@@..++oo@@@@@@@@@@@@@@@@",
"@@@@@@@@@@@@@@@@@@..++oo@@@@@@@@@@@@@@@@",
"@@@@@@@@@@@@@@@@@@@@++oo@@@@@@@@@@@@@@@@",
"@@@@@@@@@@@@@@@@@@@@++oo@@@@@@@@@@@@@@@@",
"@@@@@@@@@@@@@@@@@@        @@@@@@@@@@@@@@",
"@@@@@@@@@@@@@@@@@@        @@@@@@@@@@@@@@",
"@@@@@@@@@@@@@@@@++OOOOOOOO..@@@@@@@@@@@@",
"@@@@@@@@@@@@@@@@++OOOOOOOO..@@@@@@@@@@@@",
"@@@@@@@@@@@@@@@@++oooooooo  @@@@@@@@@@@@",
"@@@@@@@@@@@@@@@@++oooooooo  @@@@@@@@@@@@",
"@@@@@@@@@@@@@@@@            @@@@@@@@@@@@",
"@@@@@@@@@@@@@@@@            @@@@@@@@@@@@",
"@@@@@@@@@@@@@@@@@@@@@@@@@@@@@@@@@@@@@@@@",
"@@@@@@@@@@@@@@@@@@@@@@@@@@@@@@@@@@@@@@@@"
};
