/* XPM */
static char *frame_0[] = {
/* columns rows colors chars-per-pixel */
"40 40 2 1 ",
"  c black",
". c #B95225",
/* pixels */
"  ..................  ..................",
"  ..................  ..................",
"  ..................  ..................",
"  ..................  ..................",
"  ..................  ..................",
"  ..................  ..................",
"  ..................  ..................",
"  ..................  ..................",
"                                        ",
"                                        ",
"..........  ..................  ........",
"..........  ..................  ........",
"..........  ..................  ........",
"..........  ..................  ........",
"..........  ..................  ........",
"..........  ..................  ........",
"..........  ..................  ........",
"..........  ..................  ........",
"                                        ",
"                                        ",
"..................  ..................  ",
"..................  ..................  ",
"..................  ..................  ",
"..................  ..................  ",
"..................  ..................  ",
"..................  ..................  ",
"..................  ..................  ",
"..................  ..................  ",
"                                        ",
"                                        ",
"........  ..................  ..........",
"........  ..................  ..........",
"........  ..................  ..........",
"........  ..................  ..........",
"........  ..................  ..........",
"........  ..................  ..........",
"........  ..................  ..........",
"........  ..................  ..........",
"                                        ",
"                                        "
};
