/* XPM */
static char *frame_0[] = {
/* columns rows colors chars-per-pixel */
"40 40 3 1 ",
"  c black",
". c #B95225",
"X c #FFE4A3",
/* pixels */
"..XXXXXXXXXXXXXXXXXXXX  ..XXXXXXXXXXXX..",
"..XXXXXXXXXXXXXXXXXXXX  ..XXXXXXXXXXXX..",
"XX....................  XX............XX",
"XX....................  XX............XX",
"XX....................  XX............XX",
"XX....................  XX............XX",
"XX....................  XX............XX",
"XX....................  XX............XX",
"XX....................  XX............XX",
"XX....................  XX............XX",
"XX....................  XX  ..........XX",
"XX....................  XX  ..........XX",
"XX....................  ..            ..",
"XX....................  ..            ..",
"XX....................  XXXXXXXXXXXXXX  ",
"XX....................  XXXXXXXXXXXXXX  ",
"XX....................  XX............  ",
"XX....................  XX............  ",
"XX....................  XX............  ",
"XX....................  XX............  ",
"XX....................  XX............  ",
"XX....................  XX............  ",
"XX....................  XX............  ",
"XX....................  XX............  ",
"XX..................  XX..............  ",
"XX..................  XX..............  ",
"    ................  XX..............  ",
"    ................  XX..............  ",
"XXXX      ..........  XX..............  ",
"XXXX      ..........  XX..............  ",
"XX..XXXXXX          XX................  ",
"XX..XXXXXX          XX................  ",
"XX........XXXXXX  XXXX................  ",
"XX........XXXXXX  XXXX................  ",
"XX..............  XX..................  ",
"XX..............  XX..................  ",
"XX..............  XX................    ",
"XX..............  XX................    ",
"..              ....                  ..",
"..              ....                  .."
};
