/* XPM */
static char *frame_0[] = {
/* columns rows colors chars-per-pixel */
"40 40 9 1 ",
"  c black",
". c #542F29",
"X c #0E6A42",
"o c #BF080E",
"O c #FE992A",
"+ c #FFFF43",
"@ c #E3C59B",
"# c white",
"$ c None",
/* pixels */
"$$$$$$$$$$$$$$$$$$$$$$$$$$$$$$$$$$$$$$$$",
"$$$$$$$$$$$$$$$$$$$$$$$$$$$$$$$$$$$$$$$$",
"$$$$$$$$$$$$$$$$$$$$oo$$oooo$$$$$$$$$$$$",
"$$$$$$$$$$$$$$$$$$$$oo$$oooo$$$$$$$$$$$$",
"$$$$$$$$$$$$$$$$oo....oo..oooo$$$$$$$$$$",
"$$$$$$$$$$$$$$$$oo....oo..oooo$$$$$$$$$$",
"$$$$$$$$$$$$@@$$$$oo@@..oo..oo$$$$$$$$$$",
"$$$$$$$$$$$$@@$$$$oo@@..oo..oo$$$$$$$$$$",
"$$$$$$$$$$$$@@@@XXoo@@ooooXXXXoo$$$$$$$$",
"$$$$$$$$$$$$@@@@XXoo@@ooooXXXXoo$$$$$$$$",
"$$$$$$$$$$$$ooooXXXX@@@@ooooooXX$$$$$$$$",
"$$$$$$$$$$$$ooooXXXX@@@@ooooooXX$$$$$$$$",
"$$$$$$$$@@XXXX####XXXXXXXX##  oo@@@@$$$$",
"$$$$$$$$@@XXXX####XXXXXXXX##  oo@@@@$$$$",
"$$$$$$$$@@####OO  XX@@@@XXXXXX@@@@  @@$$",
"$$$$$$$$@@####OO  XX@@@@XXXXXX@@@@  @@$$",
"$$$$$$$$oo  OOOO  XX@@oo@@@@@@@@@@@@@@$$",
"$$$$$$$$oo  OOOO  XX@@oo@@@@@@@@@@@@@@$$",
"$$$$$$$$OO    OO    @@@@oo##oo##oo$$$$$$",
"$$$$$$$$OO    OO    @@@@oo##oo##oo$$$$$$",
"$$$$$$  OOOO    ..    @@@@@@@@@@@@$$$$$$",
"$$$$$$  OOOO    ..    @@@@@@@@@@@@$$$$$$",
"$$$$OO    OOOO......            OO  $$$$",
"$$$$OO    OOOO......            OO  $$$$",
"$$$$OOOO    ....OO++++++++++++OO    $$$$",
"$$$$OOOO    ....OO++++++++++++OO    $$$$",
"$$$$$$OOOOOO##OOOO++++++++++++    OOOO$$",
"$$$$$$OOOOOO##OOOO++++++++++++    OOOO$$",
"$$OO$$$$OO##......OOOOOOOOOOOO..OOOO$$$$",
"$$OO$$$$OO##......OOOOOOOOOOOO..OOOO$$$$",
"$$OOOOOO....OOOOOO..++++++++++..OO$$$$$$",
"$$OOOOOO....OOOOOO..++++++++++..OO$$$$$$",
"$$$$OOOO..OOOOOOOO..OOOOOOOO..OOOO$$$$$$",
"$$$$OOOO..OOOOOOOO..OOOOOOOO..OOOO$$$$$$",
"$$$$$$OO..OOOOOOOO....++++..OOOOOO$$$$$$",
"$$$$$$OO..OOOOOOOO....++++..OOOOOO$$$$$$",
"$$$$$$$$$$OO##OO##OO$$$$$$OOOOOO##OO$$$$",
"$$$$$$$$$$OO##OO##OO$$$$$$OOOOOO##OO$$$$",
"$$$$$$$$$$$$$$$$$$$$$$$$$$$$$$$$$$$$$$$$",
"$$$$$$$$$$$$$$$$$$$$$$$$$$$$$$$$$$$$$$$$"
};
