/* XPM */
static char *frame_2[] = {
/* columns rows colors chars-per-pixel */
"40 40 7 1 ",
"  c black",
". c #542F29",
"X c #FE0F17",
"o c #0770BC",
"O c #FEB38D",
"+ c white",
"@ c None",
/* pixels */
"@@@@@@@@@@@@@@@@@@@@@@@@@@@@@@@@@@@@@@@@",
"@@@@@@@@@@@@@@@@@@@@@@@@@@@@@@@@@@@@@@@@",
"@@@@@@@@@@@@@@@@@@@@@@@@@@@@@@@@@@@@@@@@",
"@@@@@@@@@@@@@@@@@@@@@@@@@@@@@@@@@@@@@@@@",
"@@@@@@@@@@@@@@@@@@@@@@@@@@@@@@@@@@@@@@@@",
"@@@@@@@@@@@@@@@@@@@@@@@@@@@@@@@@@@@@@@@@",
"@@@@@@@@@@@@@@XXXXXXXXXX@@@@@@@@@@@@@@@@",
"@@@@@@@@@@@@@@XXXXXXXXXX@@@@@@@@@@@@@@@@",
"@@@@@@@@@@@@XXXXXXXXXXXXXXXXXX@@@@@@@@@@",
"@@@@@@@@@@@@XXXXXXXXXXXXXXXXXX@@@@@@@@@@",
"@@@@@@@@@@@@......OOOO  OO@@@@@@@@@@@@@@",
"@@@@@@@@@@@@......OOOO  OO@@@@@@@@@@@@@@",
"@@@@@@@@@@..OO..OOOOOO  OOOOOO@@@@@@@@@@",
"@@@@@@@@@@..OO..OOOOOO  OOOOOO@@@@@@@@@@",
"@@@@@@@@@@..OO....OOOOOO  OOOOOO@@@@@@@@",
"@@@@@@@@@@..OO....OOOOOO  OOOOOO@@@@@@@@",
"@@@@@@@@@@....OOOOOOOO        @@@@@@@@@@",
"@@@@@@@@@@....OOOOOOOO        @@@@@@@@@@",
"@@@@@@@@@@@@@@OOOOOOOOOOOOOO@@@@@@@@@@@@",
"@@@@@@@@@@@@@@OOOOOOOOOOOOOO@@@@@@@@@@@@",
"@@@@@@@@@@@@XXXXXXXXooXX@@++@@@@@@@@@@@@",
"@@@@@@@@@@@@XXXXXXXXooXX@@++@@@@@@@@@@@@",
"@@@@@@@@@@++XXXXXXXXXXXX++++++@@@@@@@@@@",
"@@@@@@@@@@++XXXXXXXXXXXX++++++@@@@@@@@@@",
"@@@@@@@@++++ooXXXXXXXXXX++++@@@@@@@@@@@@",
"@@@@@@@@++++ooXXXXXXXXXX++++@@@@@@@@@@@@",
"@@@@@@@@....oooooooooooooo@@@@@@@@@@@@@@",
"@@@@@@@@....oooooooooooooo@@@@@@@@@@@@@@",
"@@@@@@@@..oooooooooooooooo@@@@@@@@@@@@@@",
"@@@@@@@@..oooooooooooooooo@@@@@@@@@@@@@@",
"@@@@@@....oooooo@@oooooo@@@@@@@@@@@@@@@@",
"@@@@@@....oooooo@@oooooo@@@@@@@@@@@@@@@@",
"@@@@@@..@@@@@@@@......@@@@@@@@@@@@@@@@@@",
"@@@@@@..@@@@@@@@......@@@@@@@@@@@@@@@@@@",
"@@@@@@@@@@@@@@@@........@@@@@@@@@@@@@@@@",
"@@@@@@@@@@@@@@@@........@@@@@@@@@@@@@@@@",
"@@@@@@@@@@@@@@@@@@@@@@@@@@@@@@@@@@@@@@@@",
"@@@@@@@@@@@@@@@@@@@@@@@@@@@@@@@@@@@@@@@@",
"@@@@@@@@@@@@@@@@@@@@@@@@@@@@@@@@@@@@@@@@",
"@@@@@@@@@@@@@@@@@@@@@@@@@@@@@@@@@@@@@@@@"
};
