/* XPM */
static char *frame_3[] = {
/* columns rows colors chars-per-pixel */
"40 40 8 1 ",
"  c black",
". c #542F29",
"X c #FE0F17",
"o c #FFFF43",
"O c #0770BC",
"+ c #FEB38D",
"@ c white",
"# c None",
/* pixels */
"########################################",
"########################################",
"########################################",
"########################################",
"########################################",
"########################################",
"##############XXXXXXXXXX################",
"##############XXXXXXXXXX################",
"############XXXXXXXXXXXXXXXXXX##########",
"############XXXXXXXXXXXXXXXXXX##########",
"############......++++  ++##############",
"############......++++  ++##############",
"##########..++..++++++  ++++++##########",
"##########..++..++++++  ++++++##########",
"##########..++....++++++  ++++++########",
"##########..++....++++++  ++++++########",
"##########....++++++++        ##########",
"##########....++++++++        ##########",
"##############++++++++++++++############",
"##############++++++++++++++############",
"############XXXXOOXXXXXX################",
"############XXXXOOXXXXXX################",
"##########XXXXXXXXOOOOXXXX##############",
"##########XXXXXXXXOOOOXXXX##############",
"##########XXXXXXOOOOooOOOO@@############",
"##########XXXXXXOOOOooOOOO@@############",
"##########XXXXXXXXOOOOOOOOOO############",
"##########XXXXXXXXOOOOOOOOOO############",
"##########OOXXXX@@@@@@OOOOOO############",
"##########OOXXXX@@@@@@OOOOOO############",
"############OOXX@@@@OOOOOO##############",
"############OOXX@@@@OOOOOO##############",
"##############OOOOOO......##############",
"##############OOOOOO......##############",
"##############..............############",
"##############..............############",
"##############........##################",
"##############........##################",
"########################################",
"########################################"
};
