/* XPM */
static char *explode5[] = {
/* columns rows colors chars-per-pixel */
"20 20 173 2 ",
"   c black",
".  c #250000",
"X  c #2C0400",
"o  c #300000",
"O  c #340000",
"+  c #320400",
"@  c #390000",
"#  c #3A0000",
"$  c #3D0000",
"%  c #3E1700",
"&  c #400000",
"*  c #430000",
"=  c #440100",
"-  c #4B0000",
";  c #4A0200",
":  c #4A0900",
">  c #530000",
",  c #500300",
"<  c #540000",
"1  c #550000",
"2  c #560000",
"3  c #570000",
"4  c #510400",
"5  c #5B0100",
"6  c #580200",
"7  c #5E0600",
"8  c #510A00",
"9  c #570D00",
"0  c #5E0E00",
"q  c #531800",
"w  c #620000",
"e  c #670000",
"r  c #610500",
"t  c #6B0400",
"y  c #630800",
"u  c #620F00",
"i  c #7A0200",
"p  c #770A00",
"a  c #631100",
"s  c #6D1100",
"d  c #761600",
"f  c #781100",
"g  c #7A1100",
"h  c #752200",
"j  c #810500",
"k  c #840400",
"l  c #890500",
"z  c #890600",
"x  c #990B00",
"c  c #841200",
"v  c #8C1000",
"b  c #801800",
"n  c #9F1100",
"m  c #911900",
"M  c #941B00",
"N  c #AA0000",
"B  c #A71300",
"V  c #AB1800",
"C  c #8F2200",
"Z  c #8A2500",
"A  c #8E2C00",
"S  c #9D2800",
"D  c #8A3400",
"F  c #943200",
"G  c #A02E00",
"H  c #B42500",
"J  c #B32A00",
"K  c #A63400",
"L  c #AE3100",
"P  c #B53400",
"I  c #B13C00",
"U  c #C33300",
"Y  c #C53200",
"T  c #CB3300",
"R  c #C43C00",
"E  c #C83800",
"W  c #924400",
"Q  c #934800",
"!  c #9F4E00",
"~  c #8E5100",
"^  c #9F5100",
"/  c #A64600",
"(  c #A34C00",
")  c #A94A00",
"_  c #AA4C00",
"`  c #B84200",
"'  c #B25000",
"]  c #B55400",
"[  c #B55700",
"{  c #B85E00",
"}  c #CD4500",
"|  c #C64A00",
" . c #C74F00",
".. c #CC4900",
"X. c #D94000",
"o. c #DD4900",
"O. c #C15200",
"+. c #CC5200",
"@. c #CE5200",
"#. c #C55A00",
"$. c #D75200",
"%. c #DB5100",
"&. c #DD5700",
"*. c #D35800",
"=. c #D55D00",
"-. c #D75D00",
";. c #D45F00",
":. c #DB5F00",
">. c #E25800",
",. c #E75800",
"<. c #F25D00",
"1. c #F25F00",
"2. c #C86400",
"3. c #CD6700",
"4. c #D76600",
"5. c #D86000",
"6. c #DB6400",
"7. c #DA6B00",
"8. c #C57000",
"9. c #D07300",
"0. c #D27B00",
"q. c #E26000",
"w. c #E46300",
"e. c #E76600",
"r. c #E76900",
"t. c #EA6A00",
"y. c #E07700",
"u. c #EC7700",
"i. c #EB7800",
"p. c #ED7B00",
"a. c #F07F00",
"s. c #FF7A00",
"d. c #FA7D00",
"f. c #FF7C00",
"g. c #D68400",
"h. c #DF8100",
"j. c #EB8100",
"k. c #E98300",
"l. c #EA8300",
"z. c #F88200",
"x. c #F88400",
"c. c #F88800",
"v. c #F98900",
"b. c #FF8800",
"n. c #F59700",
"m. c #FF9000",
"M. c #F69800",
"N. c #FF9900",
"B. c #ECA100",
"V. c #F4A000",
"C. c #F4A500",
"Z. c #FFA000",
"A. c #FEAC00",
"S. c #FDAE00",
"D. c #FFB000",
"F. c #FFB200",
"G. c #FBB800",
"H. c #FFB900",
"J. c #FFBD00",
"K. c #F7C200",
"L. c #FFC000",
"P. c #FFC500",
"I. c #FFC600",
"U. c #F9CA00",
"Y. c #FFCB00",
"T. c #FCD100",
"R. c #FFD100",
"E. c #FFD200",
"W. c #FFD300",
"Q. c #FFDB00",
"!. c #FFDE00",
"~. c #FFEF00",
"^. c None",
/* pixels */
"^.^.^.^.^.^.^.^.^.^.^.^.^.^.^.^.^.^.^.^.",
"^.^.^.^.^.^.^.^.^.^.^.^.^.^.@ * ^.^.^.^.",
"^.^.^.^.^.^.^.^.^.^.^., 3 9 + 3 3 ^.^.^.",
"^.^.^.^.^.g ^.^.^.^.^.C P w . u : 3 ^.^.",
"^.^.3 ^.^.G x s K t ^ x.d.] - v p O O ^.",
"^.^.^.^.^.a &.f.7.e 9.J.w.p.k.I z j = ^.",
"^.^.^.  0 +.A.m.] ) ..S.D.| M.! o r ^.^.",
"^.^.X b b.v.#.n.R.R.s.r.~.3.N m ^.^.^.^.",
"^.^.^.t.D.:.+.V.!.H.1.K.T.Z M o.y ^.^.^.",
"^.^.^./ h.O.>.p.G.L.P.~.L i 0.*.5 ^.^.^.",
"^.^.^.8 W } 6.Y.Y.V.U.Q.F V 1.E ^.^.^.^.",
"^.^.^.: ' T f 8.v.-.;.j.7.,.Y c 5 ^.^.^.",
"^.^.^._ x.J 3 A 4.H 2.B.p.N.e.o ^.^.^.^.",
"^.^.^.D S * Q p.) B k.R.w.6.Y ^.^.^.^.^.",
"^.^.^.^.^.^.~ g.{ $.H.Z.X.n $ ^.^.^.^.^.",
"^.^.^.^.^.^.^.% [ %.` -.R k ^.^.^.^.^.^.",
"^.^.^.^.^.^.^.o @ - ^.q d * ^.^.^.^.^.^.",
"^.^.^.^.^.^.^.h z $ ^.^.^.^.^.^.^.^.^.^.",
"^.^.^.^.^.^.^.^.7 ^.^.^.^.^.^.^.^.^.^.^.",
"^.^.^.^.^.^.^.^.^.^.^.^.^.^.^.^.^.^.^.^."
};
