/* XPM */
static char *frame_1[] = {
/* columns rows colors chars-per-pixel */
"40 40 155 2 ",
"   c #010000",
".  c #090000",
"X  c #200000",
"o  c #260000",
"O  c #280000",
"+  c #2B0000",
"@  c #2E0000",
"#  c #320000",
"$  c #340000",
"%  c #360000",
"&  c #3C0000",
"*  c #320F00",
"=  c #430000",
"-  c #460000",
";  c #480000",
":  c #4A0000",
">  c #470800",
",  c #470F00",
"<  c #510000",
"1  c #540000",
"2  c #5A0000",
"3  c #5D0000",
"4  c #5C0100",
"5  c #570E00",
"6  c #531200",
"7  c #531600",
"8  c #5E1300",
"9  c #5F1F00",
"0  c #650100",
"q  c #660000",
"w  c #680000",
"e  c #650900",
"r  c #6D0A00",
"t  c #700000",
"y  c #710000",
"u  c #770700",
"i  c #750B00",
"p  c #7E0900",
"a  c #7A0E00",
"s  c #651E00",
"d  c #6B1A00",
"f  c #6C1900",
"g  c #751200",
"h  c #771400",
"j  c #552300",
"k  c #664900",
"l  c #765800",
"z  c #810000",
"x  c #850000",
"c  c #930300",
"v  c #9D0D00",
"b  c #841A00",
"n  c #881A00",
"m  c #8F1800",
"M  c #921200",
"N  c #921300",
"B  c #971B00",
"V  c #A41000",
"C  c #A71000",
"Z  c #AF1600",
"A  c #8A2500",
"S  c #872F00",
"D  c #962C00",
"F  c #AC2800",
"G  c #B02600",
"H  c #B82000",
"J  c #BE2E00",
"K  c #A03200",
"L  c #A83300",
"P  c #A93600",
"I  c #BF3B00",
"U  c #C02E00",
"Y  c #C63E00",
"T  c #EA2A00",
"R  c #964400",
"E  c #9F4400",
"W  c #9D4800",
"Q  c #8B5D00",
"!  c #B34200",
"~  c #AF5600",
"^  c #897300",
"/  c #D04C00",
"(  c #DC5500",
")  c #DA5B00",
"_  c #E94E00",
"`  c #F34900",
"'  c #F44D00",
"]  c #E35600",
"[  c #EE5400",
"{  c #E25B00",
"}  c #CC6700",
"|  c #DF6500",
" . c #D06A00",
".. c #F36500",
"X. c #FD6800",
"o. c #E77800",
"O. c #EA7B00",
"+. c #FF7500",
"@. c #C78200",
"#. c #D08700",
"$. c #D58B00",
"%. c #FD8900",
"&. c #FE8E00",
"*. c #F09B00",
"=. c #F29C00",
"-. c #F49C00",
";. c #E3AE00",
":. c #FFA900",
">. c #ECB400",
",. c #FFB500",
"<. c #FFC200",
"1. c #FFC400",
"2. c #FFC500",
"3. c #FCD000",
"4. c #FFD100",
"5. c #FFD500",
"6. c #FFD600",
"7. c #FFDA00",
"8. c #FFDC00",
"9. c #FFDC0C",
"0. c #FFE000",
"q. c #FFEA00",
"w. c #FFEE00",
"e. c #FFEF00",
"r. c #FFF100",
"t. c #FFF300",
"y. c #FFF400",
"u. c #FFF600",
"i. c #FFF800",
"p. c #FFF900",
"a. c #FFFA00",
"s. c #FFFB00",
"d. c #FFFC00",
"f. c #FFFD00",
"g. c #FFFE00",
"h. c yellow",
"j. c #FFFF07",
"k. c #FFF50F",
"l. c #FFFF0D",
"z. c #FFFF14",
"x. c #FFFD19",
"c. c #FFF81C",
"v. c #FFFF1F",
"b. c #FFFF25",
"n. c #FFFF36",
"m. c #FFFF3B",
"M. c #FFFF3C",
"N. c #FFFF3E",
"B. c #FFFF4D",
"V. c #FFFF50",
"C. c #FFFF56",
"Z. c #FFFF6A",
"A. c #FFFF9A",
"S. c #FFFFD6",
"D. c None",
/* pixels */
"D.D.D.D.D.D.D.D.D.D.D.D.D.D.D.D.D.D.D.D.D.D.D.D.D.D.D.D.D.D.D.D.D.D.D.D.D.D.D.D.",
"D.D.D.D.D.D.D.D.D.D.D.D.D.D.D.D.D.D.D.D.D.D.D.D.D.D.D.D.D.D.D.D.D.D.D.D.D.D.D.D.",
"D.D.D.D.D.D.D.D.D.D.D.D.D.D.D.D.D.D.g g f f 8 8 r r M M u u D.D.D.D.D.D.D.D.D.D.",
"D.D.D.D.D.D.D.D.D.D.D.D.D.D.D.D.D.D.g g f f 8 8 r r M M u u D.D.D.D.D.D.D.D.D.D.",
"D.D.D.D.D.D.D.D.D.D.D.D.D.D.D.D.( ( ] ] E E , , X X B B c c 2 2 D.D.D.D.D.D.D.D.",
"D.D.D.D.D.D.D.D.D.D.D.D.D.D.D.D.( ( ] ] E E , , X X B B c c 2 2 D.D.D.D.D.D.D.D.",
"D.D.D.D.n n D.D.D.D.& & t t D D | | I I v v . .     K K N N V V G G D.D.D.D.D.D.",
"D.D.D.D.n n D.D.D.D.& & t t D D | | I I v v . .     K K N M V V G G D.D.D.D.D.D.",
"D.D./ / Y Y > > D.D.} } &.&.<.1.*.*.=.=.-.-.R R o o A A U U Z Z H H D.D.D.D.D.D.",
"D.D./ / Y Y > > D.D.} } &.&.<.1.*.=.=.=.-.-.R R o o A A U U Z Z H H D.D.D.D.D.D.",
"7 7 ! ! a a d d w.w.h.h.h.h.h.h.w.w.r.u.h.h.u.s.{ { z z C C x x # # D.D.D.D.D.D.",
"7 7 ! ! a a d d w.w.h.h.h.h.h.h.r.w.u.r.h.h.s.u.{ { z z C V x x # # D.D.D.D.D.D.",
"* * 9 9 = =  . .h.h.h.h.h.h.h.h.h.h.h.s.s.s.h.h.w.w.J J : : 3 3 + + D.D.D.D.D.D.",
"* * 9 9 = =  . .h.h.h.h.h.h.h.h.h.h.s.h.s.s.h.h.r.r.J J : : 3 3 + + D.D.D.D.D.D.",
"D.D.j j h h >.>.h.h.h.h.h.h.h.h.h.h.h.h.s.s.h.h.l.l.<.<.p p + + % # D.D.D.D.D.D.",
"D.D.j j h h >.>.h.h.h.h.h.h.h.h.h.h.h.h.h.s.h.h.l.l.<.<.p p o o # % D.D.D.D.D.D.",
"D.D.- - O.O.h.h.h.h.s.s.s.s.m.m.C.C.h.h.v.v.c.c.9.9.w.w.X.X.2 3 D.D.D.D.D.D.D.D.",
"D.D.- - O.O.h.h.h.h.s.s.s.h.m.n.C.C.h.h.v.v.c.c.9.9.r.r.X.X.3 2 D.D.D.D.D.D.D.D.",
"D.D.k k 0.0.h.h.h.h.s.s.s.s.A.A.n.n.M.M.Z.Z.k.k.4.4.8.0.) ) 0 0 D.D.D.D.D.D.D.D.",
"D.D.k k 0.0.h.h.h.h.u.s.s.s.A.A.n.n.M.M.Z.Z.k.k.4.4.0.0.) ) 0 0 D.D.D.D.D.D.D.D.",
"D.D.l l h.h.h.h.h.h.h.h.h.h.M.m.V.V.S.S.B.B.h.h.h.h.h.h.o.o.0 0 D.D.D.D.D.D.D.D.",
"D.D.l l h.h.h.h.h.h.h.h.h.h.M.B.V.V.S.S.B.B.h.h.h.h.h.h.o.o.w 0 D.D.D.D.D.D.D.D.",
"D.D.D.D.#.#.w.w.h.h.h.h.h.h.h.h.b.b.z.z.h.h.h.h.h.h.h.h.+.+.< < D.D.D.D.D.D.D.D.",
"D.D.D.D.#.#.w.w.h.h.h.h.h.h.h.h.b.b.z.z.h.h.h.h.h.h.h.h.+.+.< < D.D.D.D.D.D.D.D.",
"D.D.D.D.W W 5.5.h.h.h.h.j.j.h.h.h.h.h.h.s.h.u.s.u.u.:.:.e e D.D.D.D.D.D.D.D.D.D.",
"D.D.D.D.W W 5.5.h.h.h.h.j.j.h.h.h.h.h.h.h.h.s.u.u.u.:.:.e e D.D.D.D.D.D.D.D.D.D.",
"D.D.D.D.Q Q h.h.h.h.s.s.x.x.j.j.h.h.h.h.s.s.h.h.q.q.` ` D.D.D.D.D.D.D.D.D.D.D.D.",
"D.D.D.D.Q Q h.h.h.h.s.h.x.x.j.j.h.h.h.h.h.s.h.h.q.q.` ` D.D.D.D.D.D.D.D.D.D.D.D.",
"D.D.D.D.% % ;.;.r.r.8.8.h.h.h.h.h.h.h.h.u.r.r.u.,.,.T T D.D.D.D.D.D.D.D.D.D.D.D.",
"D.D.D.D.% % ;.;.r.w.8.8.h.h.h.h.h.h.h.h.u.r.u.r.,.,.T T D.D.D.D.D.D.D.D.D.D.D.D.",
"D.D.D.D.5 5 i i ~ ~ 3.3.s.s.r.r.h.h.h.h.h.h.1.1.' ' w w D.D.D.D.D.D.D.D.D.D.D.D.",
"D.D.D.D.5 5 i i ~ ~ 3.3.s.u.r.w.h.h.h.h.h.h.1.1.' ' w w D.D.D.D.D.D.D.D.D.D.D.D.",
"D.D.D.D.D.D.; ; s s $.$.%.%.....5.7.s.s.7.7.+.+.t t D.D.D.D.D.D.D.D.D.D.D.D.D.D.",
"D.D.D.D.D.D.; ; s s $.$.%.%.....5.5.s.s.7.7.+.+.t t D.D.D.D.D.D.D.D.D.D.D.D.D.D.",
"D.D.D.D.D.D.D.D.^ ^ @.@._ _ [ [ L L S S F F m m @ @ D.D.D.D.D.D.D.D.D.D.D.D.D.D.",
"D.D.D.D.D.D.D.D.^ ^ @.@._ _ [ [ L L S S F F m m @ # D.D.D.D.D.D.D.D.D.D.D.D.D.D.",
"D.D.D.D.D.D.D.D.D.D.6 6 b b P P 1 1 D.D.D.D.D.D.D.D.D.D.D.D.D.D.D.D.D.D.D.D.D.D.",
"D.D.D.D.D.D.D.D.D.D.6 6 b b P P 1 1 D.D.D.D.D.D.D.D.D.D.D.D.D.D.D.D.D.D.D.D.D.D.",
"D.D.D.D.D.D.D.D.D.D.D.D.D.D.D.D.D.D.D.D.D.D.D.D.D.D.D.D.D.D.D.D.D.D.D.D.D.D.D.D.",
"D.D.D.D.D.D.D.D.D.D.D.D.D.D.D.D.D.D.D.D.D.D.D.D.D.D.D.D.D.D.D.D.D.D.D.D.D.D.D.D."
};
