/* XPM */
static char *frame_6[] = {
/* columns rows colors chars-per-pixel */
"40 40 162 2 ",
"   c #0B0000",
".  c #130000",
"X  c #150000",
"o  c #1B0000",
"O  c #1C0000",
"+  c #1E0000",
"@  c #240000",
"#  c #260000",
"$  c #280100",
"%  c #2E0000",
"&  c #2F0000",
"*  c #2D0600",
"=  c #350000",
"-  c #350100",
";  c #360000",
":  c #370300",
">  c #380000",
",  c #3A0000",
"<  c #3F0000",
"1  c #3A0800",
"2  c #400000",
"3  c #410000",
"4  c #430000",
"5  c #480000",
"6  c #4B0100",
"7  c #4E0000",
"8  c #4F0000",
"9  c #400800",
"0  c #470800",
"q  c #460F00",
"w  c #480B00",
"e  c #510000",
"r  c #540000",
"t  c #560000",
"y  c #510700",
"u  c #570400",
"i  c #5F0000",
"p  c #5C0300",
"a  c #530900",
"s  c #4B1C00",
"d  c #561200",
"f  c #521D00",
"g  c #5F1C00",
"h  c #610000",
"j  c #640000",
"k  c #660100",
"l  c #660700",
"z  c #6B0000",
"x  c #690300",
"c  c #6E0000",
"v  c #6C0700",
"b  c #680C00",
"n  c #7B0000",
"m  c #7E0000",
"M  c #780800",
"N  c #671200",
"B  c #701400",
"V  c #7D1100",
"C  c #7F1200",
"Z  c #7B1D00",
"A  c #781F00",
"S  c #7E2300",
"D  c #7A2800",
"F  c #880800",
"G  c #801700",
"H  c #881400",
"J  c #871A00",
"K  c #8B1900",
"L  c #971700",
"P  c #961B00",
"I  c #9E1B00",
"U  c #812100",
"Y  c #802200",
"T  c #892B00",
"R  c #8D2D00",
"E  c #9F2100",
"W  c #922F00",
"Q  c #9D2D00",
"!  c #8E3300",
"~  c #903300",
"^  c #9A3400",
"/  c #9F3600",
"(  c #973A00",
")  c #963D00",
"_  c #9A3A00",
"`  c #A82700",
"'  c #A22B00",
"]  c #AD2C00",
"[  c #B22700",
"{  c #B32900",
"}  c #A03200",
"|  c #A63500",
" . c #B33800",
".. c #B73A00",
"X. c #B03F00",
"o. c #BE3900",
"O. c #BD3B00",
"+. c #CF2A00",
"@. c #C13900",
"#. c #CF3A00",
"$. c #D73400",
"%. c #9A4800",
"&. c #A44100",
"*. c #A84500",
"=. c #AE4500",
"-. c #B64F00",
";. c #AF5200",
":. c #AE5400",
">. c #AF5400",
",. c #B75600",
"<. c #C44300",
"1. c #CD4800",
"2. c #CA4C00",
"3. c #DB4400",
"4. c #D04F00",
"5. c #C95100",
"6. c #CE5300",
"7. c #CB5500",
"8. c #C05E00",
"9. c #C85E00",
"0. c #CD5D00",
"q. c #D25300",
"w. c #D75000",
"e. c #DA5200",
"r. c #D15D00",
"t. c #DA5E00",
"y. c #E65500",
"u. c #CB6100",
"i. c #CE6100",
"p. c #CA6A00",
"a. c #D06D00",
"s. c #DC6900",
"d. c #DF6D00",
"f. c #C07400",
"g. c #DF7500",
"h. c #DE7600",
"j. c #DA7B00",
"k. c #E46F00",
"l. c #E47D00",
"z. c #EE7900",
"x. c #F27600",
"c. c #FE7100",
"v. c #FF7900",
"b. c #D68600",
"n. c #EE8200",
"m. c #EE8800",
"M. c #FF8500",
"N. c #FF8600",
"B. c #F98A00",
"V. c #FF8B00",
"C. c #FE8E00",
"Z. c #F19000",
"A. c #FC9E00",
"S. c #FE9E00",
"D. c #FF9F00",
"F. c #EFA300",
"G. c #EDA400",
"H. c #FFA400",
"J. c #FCA800",
"K. c #FDAD00",
"L. c #FFB900",
"P. c None",
/* pixels */
"P.P.P.P.P.P.P.P.P.P.P.P.P.P.P.P.P.P.P.P.P.P.P.P.P.P.P.P.P.P.P.P.P.P.P.P.P.P.P.P.",
"P.P.P.P.P.P.P.P.P.P.P.P.P.P.P.P.P.P.P.P.P.P.P.P.P.P.P.P.P.P.P.P.P.P.P.P.P.P.P.P.",
"P.P.P.P.P.P.P.P.P.P.P.P.P.P.P.P.P.P.P.P.P.P.P.P.P.P.P.P.P.P.P.P.P.P.P.P.P.P.P.P.",
"P.P.P.P.P.P.P.P.P.P.P.P.P.P.P.P.P.P.P.P.P.P.P.P.P.P.P.P.P.P.P.P.P.P.P.P.P.P.P.P.",
"P.P.P.P.P.P.P.P.P.P.P.P.P.P.P.P.P.P.P.P.P.P.P.P.P.P.P.P.o o 4 < P.P.P.P.P.P.P.P.",
"P.P.P.P.P.P.P.P.P.P.P.P.P.P.P.P.P.P.P.P.P.P.P.P.P.P.P.P.o o < < P.P.P.P.P.P.P.P.",
"P.P.P.P.P.P.P.P.P.P.P.P.P.P.P.P.P.P.P.P.P.P.4 4 x x 5 5 $ $ 6 6 < > P.P.P.P.P.P.",
"P.P.P.P.P.P.P.P.P.P.P.P.P.P.P.P.P.P.P.P.P.P.4 4 x x 5 6 $ $ 6 6 > > P.P.P.P.P.P.",
"P.P.P.P.P.P.P.P.y y V V P.P.P.P.P.P.P.P.; ; } } e.e.N N     p p 8 r - - P.P.P.P.",
"P.P.P.P.P.P.P.P.y y V V P.P.P.P.P.P.P.P.; ; } } e.e.N N     p p r r - - P.P.P.P.",
"P.P.# # P.P.P.P.P.P.L L j j R R Z S & & ;.;.d.d.2.2.=.=.S S K K x j > > P.P.P.P.",
"P.P.# # P.P.P.P.P.P.L L j j R R A A & & ;.;.d.d.2.2.=.=.S S K K j j > > P.P.P.P.",
"P.P.P.P.P.P.P.P.X X Z Z y.y.4.4.T T j x 9.9.A.A.w.w.| | C.C.~ ~ < < r r P.P.P.P.",
"P.P.P.P.P.P.P.P.X X Z Z y.y.4.4.T T z x 9.9.A.A.w.w.| | C.C.~ ~ < < r r P.P.P.P.",
"P.P.P.P.+ + a a 5.5.&.&.k.k.q.q.f.f.l.l.3.3.0.0.J.J. . .E E w w P.P.P.P.P.P.P.P.",
"P.P.P.P.+ + a a 5.5.&.&.k.k.q.q.f.f.l.l.3.3.0.0.J.J. . .E E w w P.P.P.P.P.P.P.P.",
"P.P.P.P.0 0 c.c.M.N.Q Q 8.8.H.H.L.L.A.A.+.+.p.p.G.G.G G m m H H P.P.P.P.P.P.P.P.",
"P.P.P.P.0 w c.c.M.N.Q Q 8.8.H.H.L.L.A.A.+.+.p.p.G.G.Z C m m H H P.P.P.P.P.P.P.P.",
"P.P.P.P.P.P.i.i.;.;.{ { 6.6.s.s.Z.Z.N.N.n.n.F.F.B B & & *.*.' ' P.P.P.P.P.P.P.P.",
"P.P.P.P.P.P.i.i.,.:.{ [ 6.6.s.s.Z.Z.N.N.n.n.F.F.B B & & *.*.' ' P.P.P.P.P.P.P.P.",
"P.P.P.P.P.P.9 9 D D ` ` r.r.m.m.A.A.j.j.K.K.b.b.4 4 M M @.@.G G P.P.P.P.P.P.P.P.",
"P.P.P.P.P.P.9 9 D D ` ` r.r.m.m.A.A.j.j.K.K.b.b.< 5 M M @.@.G M P.P.P.P.P.P.P.P.",
"P.P.P.P.P.P.q q ....t h f f g.g.z.z./ ^ 7.7.g.g.-.-.$.$.F F t t : - P.P.P.P.P.P.",
"P.P.P.P.P.P.q q ....h p f s g.l.z.z.^ ^ 7.7.g.g.-.-.$.$.F F t t ; ; P.P.P.P.P.P.",
"P.P.P.P.1 1 ( ( <.<.8 8 . . Y Y ] ] v v ,.,.u.u.t.t.v.v.X.X.P.P.P.P.P.P.P.P.P.P.",
"P.P.P.P.1 1 ( ( <.<.8 8 . . Y Y ] ] v v ,.,.u.u.t.t.v.v.X.X.P.P.P.P.P.P.P.P.P.P.",
"P.P.P.P.d d J J l l P.P.g g _ _ Y Y n n a.a.B.B.O.O.1.1.P P P.P.P.P.P.P.P.P.P.P.",
"P.P.P.P.d d J J l l P.P.g g _ _ Y Y n n a.a.B.B.O.O.1.1.P P P.P.P.P.P.P.P.P.P.P.",
"P.P.P.P.P.P.P.P.P.P.P.P.%.%.:.:.) ) #.#.V.V.x.x.[ [ c c # @ P.P.P.P.P.P.P.P.P.P.",
"P.P.P.P.P.P.P.P.P.P.P.P.%.%.:.:.) ) #.#.V.V.x.x.[ [ c z @ @ P.P.P.P.P.P.P.P.P.P.",
"P.P.P.P.P.P.P.P.P.P.P.P.P.P.s s / } O.O.! ! W W I I h h P.P.P.P.P.P.P.P.P.P.P.P.",
"P.P.P.P.P.P.P.P.P.P.P.P.P.P.s s / } o.o.! ~ W W I I h h P.P.P.P.P.P.P.P.P.P.P.P.",
"P.P.P.P.P.P.P.P.P.P.P.P.P.P.+ o : : > < P.P.* * u u P.P.P.P.P.P.P.P.P.P.P.P.P.P.",
"P.P.P.P.P.P.P.P.P.P.P.P.P.P.o + : ; > > P.P.* * u u P.P.P.P.P.P.P.P.P.P.P.P.P.P.",
"P.P.P.P.P.P.P.P.P.P.P.P.P.P.b b 8 8 P.P.P.P.P.P.P.P.P.P.P.P.P.P.P.P.P.P.P.P.P.P.",
"P.P.P.P.P.P.P.P.P.P.P.P.P.P.b b 8 8 P.P.P.P.P.P.P.P.P.P.P.P.P.P.P.P.P.P.P.P.P.P.",
"P.P.P.P.P.P.P.P.P.P.P.P.P.P.P.P.P.P.P.P.P.P.P.P.P.P.P.P.P.P.P.P.P.P.P.P.P.P.P.P.",
"P.P.P.P.P.P.P.P.P.P.P.P.P.P.P.P.P.P.P.P.P.P.P.P.P.P.P.P.P.P.P.P.P.P.P.P.P.P.P.P.",
"P.P.P.P.P.P.P.P.P.P.P.P.P.P.P.P.P.P.P.P.P.P.P.P.P.P.P.P.P.P.P.P.P.P.P.P.P.P.P.P.",
"P.P.P.P.P.P.P.P.P.P.P.P.P.P.P.P.P.P.P.P.P.P.P.P.P.P.P.P.P.P.P.P.P.P.P.P.P.P.P.P."
};
