/* XPM */
static char *frame_3[] = {
/* columns rows colors chars-per-pixel */
"40 40 174 2 ",
"   c #040000",
".  c #120000",
"X  c #160000",
"o  c #170000",
"O  c #230000",
"+  c #2A0100",
"@  c #300000",
"#  c #350000",
"$  c #340200",
"%  c #350600",
"&  c #3A0000",
"*  c #3B0000",
"=  c #3F0900",
"-  c #362100",
";  c #3D3500",
":  c #400000",
">  c #420100",
",  c #480100",
"<  c #4A0000",
"1  c #4E0200",
"2  c #4F0600",
"3  c #530000",
"4  c #560000",
"5  c #510400",
"6  c #590000",
"7  c #5C0000",
"8  c #5E0C00",
"9  c #471100",
"0  c #600000",
"q  c #640000",
"w  c #6B0000",
"e  c #620900",
"r  c #620C00",
"t  c #710600",
"y  c #760400",
"u  c #780000",
"i  c #790500",
"p  c #7B0600",
"a  c #760900",
"s  c #7F0800",
"d  c #651000",
"f  c #6D1000",
"g  c #6F1600",
"h  c #771300",
"j  c #741400",
"k  c #722000",
"l  c #762100",
"z  c #7F2C00",
"x  c #800000",
"c  c #820000",
"v  c #8E0500",
"b  c #890A00",
"n  c #930700",
"m  c #9E0400",
"M  c #900A00",
"N  c #8E1100",
"B  c #971F00",
"V  c #981D00",
"C  c #991D00",
"Z  c #972500",
"A  c #8B3300",
"S  c #AE2F00",
"D  c #B22500",
"F  c #BC2300",
"G  c #A23600",
"H  c #AC3200",
"J  c #B03000",
"K  c #BA3100",
"L  c #CC2C00",
"P  c #CE3700",
"I  c #D93700",
"U  c #8C4C00",
"Y  c #B74600",
"T  c #AC5200",
"R  c #B05E00",
"E  c #B35E00",
"W  c #CC4B00",
"Q  c #C05900",
"!  c #D15600",
"~  c #D85100",
"^  c #DA5D00",
"/  c #E94400",
"(  c #E54A00",
")  c #F85C00",
"_  c #C46600",
"`  c #CF6400",
"'  c #CC7900",
"]  c #D57A00",
"[  c #ED6600",
"{  c #F26600",
"}  c #FA6200",
"|  c #FD6E00",
" . c #F27600",
".. c #F37700",
"X. c #F87500",
"o. c #F67900",
"O. c #F87E00",
"+. c #FF7E00",
"@. c #DB9100",
"#. c #DD9100",
"$. c #F88000",
"%. c #F98000",
"&. c #FF8600",
"*. c #F18800",
"=. c #F58B00",
"-. c #F58C00",
";. c #FE8B00",
":. c #FB8F00",
">. c #FF8D00",
",. c #E79600",
"<. c #EC9300",
"1. c #EC9A00",
"2. c #F19100",
"3. c #FD9E00",
"4. c #FF9E00",
"5. c #FBA000",
"6. c #FDA200",
"7. c #FDA600",
"8. c #F6AA00",
"9. c #FBAA00",
"0. c #FFAC00",
"q. c #F8B300",
"w. c #FEB100",
"e. c #FFB400",
"r. c #FEB500",
"t. c #FFB500",
"y. c #FFB600",
"u. c #FBBC00",
"i. c #FFBC00",
"p. c #FFBD00",
"a. c #EEC000",
"s. c #F9C100",
"d. c #F8C700",
"f. c #FFC500",
"g. c #FDC600",
"h. c #FFC700",
"j. c #F7CB00",
"k. c #FDC900",
"l. c #FEC900",
"z. c #FFC900",
"x. c #FFCB00",
"c. c #FFCC00",
"v. c #FCCE00",
"b. c #FFCF00",
"n. c #FFD100",
"m. c #FAD400",
"M. c #FFD400",
"N. c gold",
"B. c #F9DB00",
"V. c #FFD800",
"C. c #FEDD00",
"Z. c #FFDE00",
"A. c #FEDF00",
"S. c #FFDF00",
"D. c #FFE000",
"F. c #FFE200",
"G. c #FFE400",
"H. c #FEE600",
"J. c #FFE900",
"K. c #FFEA00",
"L. c #FFEB00",
"P. c #FFEE00",
"I. c #FFF300",
"U. c #FFF400",
"Y. c #FFF500",
"T. c #FEF600",
"R. c #FFF800",
"E. c #FFF900",
"W. c #FFFA00",
"Q. c #FFFB00",
"!. c #FFFD00",
"~. c #FFFE00",
"^. c yellow",
"/. c None",
/* pixels */
"/./././././././././././././././././././././././././././././././././././././././.",
"/./././././././././././././././././././././././././././././././././././././././.",
"/./././././././././././././././././././././././././././.3 3 4 4 /./././././././.",
"/./././././././././././././././././././././././././././.3 3 4 4 /./././././././.",
"/./././././././././././././././././././.= = B B f f 9 9 : : b b 7 7 /./././././.",
"/./././././././././././././././././././.= = B B f f 9 9 : : b b 7 7 /./././././.",
"/./././././.2 2 /./././././././././././.d d K K V V , , + + j j w w M M /./././.",
"/./././././.2 2 /./././././././././././.d d K K V V , , + + j j w w M M /./././.",
"/./././.V V e e /./.Q Q ( ( H H z z k k ` ` 1.1.6.3.y y # # S S s s p p 1 5 /./.",
"/./././.V V e e /./.Q Q ( ( H H z z k k ` ` 1.1.5.5.y y # # S S p b p y 5 5 /./.",
"/./././.r r * * . . Y Y >.>.S.S.v.v.~ ~ R.R.K.K.z.z.s.s.D D F F n n q q , , /./.",
"/./././.r r * * . . Y Y >.>.S.S.z.v.~ ~ R.R.K.K.z.z.s.s.D D F F n n q q , 1 /./.",
"/./././.% % X X 6 6 @.@.^.^.R.R.k.d.^ ^ m.m.^.^.w.w.^.^.Y.Y.N N 6 6 c u /./././.",
"/./././.% % X X 6 6 @.@.^.^.R.R.d.d.^ ^ m.m.^.^.w.w.^.^.Y.Y.N N 6 6 c c /./././.",
"/./././././.h h O.O.^.^.m.m.v.v.Y.Y.K.K.k.k.P.P.^.^.<.<.8.8.W W O O $ + /./././.",
"/./././././.h h O.O.^.^.m.m.v.v.Y.Y.K.H.z.z.P.P.^.^.<.<.8.8.W W O O + $ /./././.",
"/./././.- - *.*.S.S.n.n.=.=.u.u.^.^.^.^.K.K.Y.I.Y.Y.P P I I +.+././././././././.",
"/./././.- - *.*.S.S.n.v.=.=.u.u.^.^.^.^.K.K.I.Y.R.Y.P P I I +.+././././././././.",
"/./././././.#.#.R.^.f.f.;.;.z.z.^.^.I.I.^.^.^.^.3.3.-.-.B.B. . .a a /./././././.",
"/./././././.#.#.^.R.g.g.;.;.z.z.^.^.I.I.^.^.^.^.3.3.-.-.B.B. . .a a /./././././.",
"/./././././.R R j.j.n.n.N.V.Y.I.R.R.^.^.^.^.^.R.7.7.y.y.P.K.X.X.q q /./././././.",
"/./././././.R R j.j.n.n.N.N.I.Y.R.^.^.^.^.^.^.R.7.9.y.y.K.K.X.X.q q /./././././.",
"/./././././.l l ! ! :.:.q.q.S.B.S.S.F.F.F.F.g.g.9.9.6.6.$.$.} } 0 0 /./././././.",
"/./././././.l l ! ! :.:.q.q.S.S.S.S.F.H.F.F.g.g.9.9.6.5.$.$.} } 0 0 /./././././.",
"/./././././.' ' z.v.O.%.[ [ z.z.v.v.w.w.F.S.H.H.r.r.V.N.....p p /./././././././.",
"/./././././.' ' z.v.%.%.[ [ z.z.n.v.w.w.S.F.H.H.r.r.V.V.....p p /./././././././.",
"/./././././.U U ,.,.{ { N.n.^.^.2.2.o.o.S.S.R.^.r.r.i.i.) ) /./././././././././.",
"/./././././.U U ,.,.{ { n.N.^.^.2.2.o.o.S.S.^.^.r.r.i.i.) ) /./././././././././.",
"/./././././././.o o : > E E a.a.0.0.i.i.^.^.g.g.&.&./ / u u /./././././././././.",
"/./././././././.X X > > E E a.a.0.0.i.i.^.^.z.g.&.&./ / u u /./././././././././.",
"/./././././.# $ O O     * * A A ] ] 3.3.r.w.z.v.| | m m /./././././././././././.",
"/./././././.$ $ O O     * * A A ] ] 3.3.r.w.v.z.| | m m /./././././././././././.",
"/./././././././././././././.Z Z c c v v G G _ _ J J 1 1 /./././././././././././.",
"/./././././././././././././.Z Z c c v v G G _ _ J J 1 1 /./././././././././././.",
"/./././././././././././.; ; T T L L t t /./././././././././././././././././././.",
"/./././././././././././.; ; T T L L t t /./././././././././././././././././././.",
"/./././././././././././././././.g g 8 8 /./././././././././././././././././././.",
"/./././././././././././././././.g g 8 8 /./././././././././././././././././././.",
"/./././././././././././././././././././././././././././././././././././././././.",
"/./././././././././././././././././././././././././././././././././././././././."
};
