/* XPM */
static char *explode7[] = {
/* columns rows colors chars-per-pixel */
"20 20 142 2 ",
"   c #010000",
".  c #020000",
"X  c #000200",
"o  c #0B0000",
"O  c #190000",
"+  c #1A0000",
"@  c #1B0000",
"#  c #1E0000",
"$  c #200000",
"%  c #240000",
"&  c #280100",
"*  c #2D0000",
"=  c #300000",
"-  c #340000",
";  c #390000",
":  c #390100",
">  c #3A0000",
",  c #3C0000",
"<  c #3F0000",
"1  c #4B0000",
"2  c #4B0100",
"3  c #4E0000",
"4  c #4D0400",
"5  c #440F00",
"6  c #4B0A00",
"7  c #4C0800",
"8  c #4D0B00",
"9  c #490E00",
"0  c #520000",
"q  c #540000",
"w  c #550000",
"e  c #560000",
"r  c #550700",
"t  c #570600",
"y  c #580000",
"u  c #5A0600",
"i  c #5F0400",
"p  c #570800",
"a  c #5B0800",
"s  c #590A00",
"d  c #481600",
"f  c #561400",
"g  c #581000",
"h  c #5C1300",
"j  c #5B1D00",
"k  c #600000",
"l  c #630400",
"z  c #630600",
"x  c #660500",
"c  c #680700",
"v  c #6E0B00",
"b  c #680E00",
"n  c #700200",
"m  c #720800",
"M  c #750B00",
"N  c #770F00",
"B  c #611100",
"V  c #621400",
"C  c #661E00",
"Z  c #681900",
"A  c #6E1800",
"S  c #731300",
"D  c #781500",
"F  c #781700",
"G  c #711B00",
"H  c #7C1B00",
"J  c #7D1C00",
"K  c #7D1D00",
"L  c #6C2800",
"P  c #712400",
"I  c #7F2000",
"U  c #772D00",
"Y  c #861100",
"T  c #831500",
"R  c #891400",
"E  c #851F00",
"W  c #941900",
"Q  c #971800",
"!  c #A81D00",
"~  c #B41F00",
"^  c #BD1E00",
"/  c #842500",
"(  c #842800",
")  c #842E00",
"_  c #852E00",
"`  c #8F2800",
"'  c #8C2D00",
"]  c #972400",
"[  c #9C2300",
"{  c #982500",
"}  c #863800",
"|  c #9D3800",
" . c #983F00",
".. c #AC2200",
"X. c #AE2200",
"o. c #A12E00",
"O. c #B22F00",
"+. c #BA2B00",
"@. c #A43E00",
"#. c #B03600",
"$. c #B13B00",
"%. c #B23F00",
"&. c #B63E00",
"*. c #B73E00",
"=. c #B83800",
"-. c #BF3800",
";. c #BA3E00",
":. c #BE3F00",
">. c #CE2B00",
",. c #8A4500",
"<. c #9E4000",
"1. c #AD4900",
"2. c #A84C00",
"3. c #B34200",
"4. c #B24300",
"5. c #B84E00",
"6. c #C14900",
"7. c #C14E00",
"8. c #C74D00",
"9. c #CA4E00",
"0. c #C25500",
"q. c #C85500",
"w. c #C15A00",
"e. c #C95D00",
"r. c #D15300",
"t. c #D15A00",
"y. c #E05E00",
"u. c #D06100",
"i. c #D06200",
"p. c #D56300",
"a. c #D66400",
"s. c #C17700",
"d. c #CF7500",
"f. c #E86200",
"g. c #E86700",
"h. c #E26C00",
"j. c #FC6100",
"k. c #E37400",
"l. c #FF7E00",
"z. c #E68100",
"x. c #FF8200",
"c. c None",
/* pixels */
"c.c.c.c.c.c.c.c.c.c.c.c.c.c.c.c.c.c.c.c.",
"c.c.c.c.c.c.c.c.c.c.c.c.c.c.c.c.c.c.c.c.",
"c.c.c.c.c.c.c.c.c.c.c.c.c.c.c.# * c.c.c.",
"c.c.c.c.c.c.c.c.c.c.c.c.h ..* . < > c.c.",
"c.c.c.c.c.4 x c.c.c.c.d o.:.C o l 0 # c.",
"c.c.c.c.c.c.l 1 Z u < _ q.] / &.S > * c.",
"c.c.c.c.c.c.g +.T L N =.h.8.J 0.c.c.c.c.",
"c.c.c.c.` -.G t.3.d.x.^ ' s.Y q c.c.c.c.",
"c.c.c.a y.&.c w.k.z.l...2.,.- n v c.c.c.",
"c.c.c.c.f P ! 6.#.a.f.e. .o . J b c.c.c.",
"c.c.c.c.% t D <.p.g.1.i.} 8 m R y c.c.c.",
"c.c.c.c.j W O O 3.$.t ;.i.$.>.i c.c.c.c.",
"c.c.c.& / D # . V i 9 @.| 7.j.E c.c.c.c.",
"c.c.c.9 q c.c.c.8 a 3 2.9.{ O.a c.c.c.c.",
"c.c.c.c.c.c.c._ U ( ~ 5.r.Q q c.c.c.c.c.",
"c.c.c.c.c.c.c.c.5 H [ A B M 0 c.c.c.c.c.",
"c.c.c.c.c.c.c.c.c.c.c.c.c.> c.c.c.c.c.c.",
"c.c.c.c.c.c.c.c.3 c.c.c.c.c.c.c.c.c.c.c.",
"c.c.c.c.c.c.c.c.> - c.c.c.c.c.c.c.c.c.c.",
"c.c.c.c.c.c.c.c.c.c.c.c.c.c.c.c.c.c.c.c."
};
