/* XPM */
static char *frame_0[] = {
/* columns rows colors chars-per-pixel */
"40 40 172 2 ",
"   c black",
".  c #060000",
"X  c #0B0000",
"o  c #150000",
"O  c #1D0900",
"+  c #240000",
"@  c #300000",
"#  c #340000",
"$  c #360000",
"%  c #3A0000",
"&  c #3D0700",
"*  c #3B0C00",
"=  c #2A1200",
"-  c #420000",
";  c #440100",
":  c #4E0000",
">  c #5D0000",
",  c #5F0000",
"<  c #5E1500",
"1  c #5D1D00",
"2  c #5C1E00",
"3  c #640500",
"4  c #660500",
"5  c #670700",
"6  c #6A0700",
"7  c #7C0000",
"8  c #7E0000",
"9  c #7D0A00",
"0  c #7B0C00",
"q  c #790F00",
"w  c #6C1D00",
"e  c #712100",
"r  c #762100",
"t  c #7D4200",
"y  c #7D4300",
"u  c #6C5100",
"i  c #830000",
"p  c #8E0000",
"a  c #8B0600",
"s  c #870800",
"d  c #870D00",
"f  c #8D0C00",
"g  c #8F0D00",
"h  c #900000",
"j  c #970000",
"k  c #920900",
"l  c #8E1E00",
"z  c #A70F00",
"x  c #BB0B00",
"c  c #A21700",
"v  c #AC1300",
"b  c #A71800",
"n  c #AD1D00",
"m  c #BC1200",
"M  c #B61C00",
"N  c #8D2200",
"B  c #942100",
"V  c #9F2900",
"C  c #9E2E00",
"Z  c #8C3A00",
"A  c #A22D00",
"S  c #A42D00",
"D  c #B52000",
"F  c #BB2A00",
"G  c #A13700",
"H  c #B23200",
"J  c #B83300",
"K  c #B73E00",
"L  c #C21900",
"P  c #C12D00",
"I  c #E72800",
"U  c #E23B00",
"Y  c #974300",
"T  c #8A5E00",
"R  c #A34300",
"E  c #AD5300",
"W  c #986500",
"Q  c #8E7900",
"!  c #AC6800",
"~  c #D15500",
"^  c #ED4F00",
"/  c #FF4400",
"(  c #E05400",
")  c #ED5200",
"_  c #D86100",
"`  c #DB6A00",
"'  c #D37400",
"]  c #E56800",
"[  c #FB6C00",
"{  c #FB6E00",
"}  c #E47700",
"|  c #EA7000",
" . c #E97700",
".. c #FF7C00",
"X. c #BA9200",
"o. c #CA9D00",
"O. c #D19300",
"+. c #E58A00",
"@. c #FF8700",
"#. c #FE8E00",
"$. c #EB9100",
"%. c #FA9B00",
"&. c #FF9900",
"*. c #FF9A00",
"=. c #FF9C00",
"-. c #FFA300",
";. c #FFA900",
":. c #FDAD00",
">. c #FFAE00",
",. c #F9B700",
"<. c #FFB800",
"1. c #FCBB00",
"2. c #FFBB00",
"3. c #FFBF00",
"4. c #FFC000",
"5. c #F6CC00",
"6. c #FFD400",
"7. c gold",
"8. c #FFD900",
"9. c #FFDC00",
"0. c #FFDE00",
"q. c #FFE100",
"w. c #FAE500",
"e. c #FBEC00",
"r. c #FEED00",
"t. c #FFED00",
"y. c #FFF000",
"u. c #FFF100",
"i. c #FFF200",
"p. c #FFF300",
"a. c #FFF400",
"s. c #FFF500",
"d. c #FFF800",
"f. c #FFFA00",
"g. c #FFFB00",
"h. c #FFFD00",
"j. c #FFFE00",
"k. c yellow",
"l. c #FFFF01",
"z. c #FFFF04",
"x. c #FFFF07",
"c. c #FFFF0B",
"v. c #FFFF0C",
"b. c #FFFF0E",
"n. c #FFFC10",
"m. c #FFFF12",
"M. c #FFFF17",
"N. c #FFFF1D",
"B. c #FFFF21",
"V. c #FFFF2D",
"C. c #FFFF3B",
"Z. c #FFFF52",
"A. c #FFFF57",
"S. c #FFFF61",
"D. c #FFFF63",
"F. c #FFFF75",
"G. c #FFFF81",
"H. c #FFFF85",
"J. c #FFFF8C",
"K. c #FFFF95",
"L. c #FFFFA6",
"P. c #FFFFA7",
"I. c #FFFFAE",
"U. c #FFFFB1",
"Y. c #FFFFB2",
"T. c #FFFFCB",
"R. c #FFFFCE",
"E. c #FFFFD3",
"W. c #FFFFE4",
"Q. c #FFFFF3",
"!. c white",
"~. c None",
/* pixels */
"~.~.~.~.~.~.~.~.~.~.~.~.~.~.~.~.~.~.~.~.~.~.~.~.: : 6 6 9 9 ~.~.~.~.~.~.~.~.~.~.",
"~.~.~.~.~.~.~.~.~.~.~.~.~.~.~.~.~.~.~.~.~.~.~.~.: : 6 6 9 9 ~.~.~.~.~.~.~.~.~.~.",
"~.~.~.~.~.~.~.~.~.~.~.~.~.~.d d b b R R 2 2 X X o o l l m m i i ~.~.~.~.~.~.~.~.",
"~.~.~.~.~.~.~.~.~.~.~.~.~.~.d d b b R R 2 2 X X o o l l m m i i ~.~.~.~.~.~.~.~.",
"~.~.~.~.~.~.~.~.~.~.~.~.E E 3.3.[ [ ~ ~ G G         r r n n 8 8 a a q 0 ~.~.~.~.",
"~.~.~.~.~.~.~.~.~.~.~.~.E E 3.3.[ [ ~ ~ G G         r r n n 8 8 a a 9 0 ~.~.~.~.",
"~.~.~.~.F F V V w w Y Y 9.7.0.0.;.;.| | P P - - + + < < C C k k M M ^ ^ q q ~.~.",
"~.~.~.~.F F V V w w Y Y 9.7.0.0.;.;.| | P P - - + + < < C C k k M M ^ ^ q q ~.~.",
"~.~._ _ ( (  . .-.-.7.6.a.a.0.9.i.t.f.k.<.<.#.#.) ) H H A A c c 3 6 B B g g ~.~.",
"~.~._ _ ( (  . .-.-.6.6.a.a.9.9.i.i.k.k.<.1.#.#.) ) H H A A c c 3 3 B B g g ~.~.",
"e e K K ' ' 7.7.0.0.f.f.k.k.k.k.k.k.k.k.k.k.k.k.i.i.=.=.U U j j % % . . ~.~.~.~.",
"e e K K ' ' 7.7.0.0.f.f.k.k.k.k.k.k.k.k.k.k.k.k.i.i.=.=.U U j j % % . X ~.~.~.~.",
"& & Z Z >.>.q.q.k.k.k.k.k.k.k.k.k.k.k.k.k.k.k.k.k.k.i.a.....i i # # o o ~.~.~.~.",
"& & Z Z >.>.q.q.k.k.k.k.k.k.k.k.k.k.k.k.k.k.k.k.k.k.a.i.....i i % # o o ~.~.~.~.",
"O O T T %.%.1.1.k.k.k.k.k.k.k.k.k.k.k.k.k.k.k.k.k.k.k.k.1.1.z z # # @ @ ~.~.~.~.",
"O O T T %.%.1.1.k.k.k.k.k.k.k.k.k.k.k.k.k.k.k.k.k.k.k.k.1.1.z z # # @ @ ~.~.~.~.",
"~.~.t t 3.3.r.r.k.k.k.k.k.k.k.k.H.H.Y.Y.K.K.P.P.I.I.z.c.f.k.@.@.L L ; ; ~.~.~.~.",
"~.~.t t 4.3.r.r.k.k.k.k.k.k.k.k.H.F.Y.Y.K.K.P.P.I.I.z.c.k.k.@.@.L L ; ; ~.~.~.~.",
"~.~.2 1 5.5.k.k.k.k.k.k.k.k.A.D.Q.Q.!.!.!.!.!.!.H.H.z.z.k.k.$.$.I I 5 3 ~.~.~.~.",
"~.~.2 2 5.5.k.k.k.k.k.k.k.k.D.D.Q.Q.!.!.!.!.!.!.H.H.z.c.k.k.$.$.I I 5 6 ~.~.~.~.",
"~.~.u u f.f.k.k.k.k.b.b.T.T.!.!.!.!.!.!.!.!.Y.Y.c.c.c.c.k.k.+.+.p p ~.~.~.~.~.~.",
"~.~.u u f.f.k.k.k.k.c.b.T.T.!.!.!.!.!.!.!.!.Y.Y.c.c.c.c.k.k.+.+.p p ~.~.~.~.~.~.",
"~.~.~.~.e.e.M.M.M.M.k.k.W.W.!.!.P.P.E.E.!.!.Z.Z.m.m.z.z.k.k.&.&.x x ~.~.~.~.~.~.",
"~.~.~.~.e.e.M.M.M.M.k.k.W.W.!.!.P.P.E.E.!.!.Z.Z.m.m.z.z.k.k.&.&.x x ~.~.~.~.~.~.",
"~.~.~.~.o.o.b.b.C.C.V.V.c.c.J.J.R.R.F.F.D.D.k.k.k.k.k.k.k.k.&.&.s s ~.~.~.~.~.~.",
"~.~.~.~.o.o.b.b.C.C.V.V.c.c.J.J.R.R.F.F.D.D.k.k.k.k.k.k.k.k.&.&.s s ~.~.~.~.~.~.",
"~.~.~.~.t t i.t.n.n.N.N.k.k.k.k.A.A.B.B.k.k.k.k.k.k.k.k.3.3.D D ~.~.~.~.~.~.~.~.",
"~.~.~.~.t t i.i.n.n.N.N.k.k.k.k.A.A.B.B.k.k.k.k.k.k.k.k.3.3.D D ~.~.~.~.~.~.~.~.",
"~.~.~.~.* * O.O.i.i.k.k.k.k.k.k.k.k.k.k.k.k.k.k.f.a.i.i.[ { 8 7 ~.~.~.~.~.~.~.~.",
"~.~.~.~.* * O.O.i.t.k.k.k.k.k.k.k.k.k.k.k.k.k.k.f.f.i.i.[ { 7 7 ~.~.~.~.~.~.~.~.",
"~.~.~.~.~.~.! ! k.k.k.k.k.k.k.k.k.k.k.k.k.k.k.k.k.f.9.7./ / p h ~.~.~.~.~.~.~.~.",
"~.~.~.~.~.~.! ! k.k.k.k.k.k.k.k.k.k.k.k.k.k.k.k.k.k.9.9./ / h h ~.~.~.~.~.~.~.~.",
"~.~.~.~.= = W W w.w.k.k.k.k.k.k.k.k.k.k.k.k.k.k.k.k.` ` 3 3 ~.~.~.~.~.~.~.~.~.~.",
"~.~.~.~.= = W W w.w.k.k.k.k.k.k.k.k.k.k.k.k.k.k.k.k.` ` 3 3 ~.~.~.~.~.~.~.~.~.~.",
"~.~.~.~.~.~.Q Q X.X.} } :.>.7.6.t.t.a.a.7.7.,.,.] ] > 3 ~.~.~.~.~.~.~.~.~.~.~.~.",
"~.~.~.~.~.~.Q Q X.X.} } :.;.6.6.t.t.a.a.7.7.,.,.] ] > > ~.~.~.~.~.~.~.~.~.~.~.~.",
"~.~.~.~.~.~.~.~.~.~.> > f f J J N N S S v v 8 8 > > ~.~.~.~.~.~.~.~.~.~.~.~.~.~.",
"~.~.~.~.~.~.~.~.~.~.> > f f J J N N S S v v 8 8 > > ~.~.~.~.~.~.~.~.~.~.~.~.~.~.",
"~.~.~.~.~.~.~.~.~.~.~.~.~.~.~.~.~.~.~.~.~.~.~.~.~.~.~.~.~.~.~.~.~.~.~.~.~.~.~.~.",
"~.~.~.~.~.~.~.~.~.~.~.~.~.~.~.~.~.~.~.~.~.~.~.~.~.~.~.~.~.~.~.~.~.~.~.~.~.~.~.~."
};
