/* XPM */
static char *floor[] = {
/* columns rows colors chars-per-pixel */
"20 20 3 1 ",
"  c black",
". c #B95225",
"X c #FFE4A3",
/* pixels */
".XXXXXXXXXX .XXXXXX.",
"X.......... X......X",
"X.......... X......X",
"X.......... X......X",
"X.......... X......X",
"X.......... X .....X",
"X.......... .      .",
"X.......... XXXXXXX ",
"X.......... X...... ",
"X.......... X...... ",
"X.......... X...... ",
"X.......... X...... ",
"X......... X....... ",
"  ........ X....... ",
"XX   ..... X....... ",
"X.XXX     X........ ",
"X....XXX XX........ ",
"X....... X......... ",
"X....... X........  ",
".       ..         ."
};
