/* XPM */
static char *platform[] = {
/* columns rows colors chars-per-pixel */
"20 20 2 1 ",
"  c black",
". c #B95225",
/* pixels */
" ......... .........",
" ......... .........",
" ......... .........",
" ......... .........",
"                    ",
"..... ......... ....",
"..... ......... ....",
"..... ......... ....",
"..... ......... ....",
"                    ",
"......... ......... ",
"......... ......... ",
"......... ......... ",
"......... ......... ",
"                    ",
".... ......... .....",
".... ......... .....",
".... ......... .....",
".... ......... .....",
"                    "
};
